<?xml version="1.0" encoding="utf-8" standalone="no"?>
<!DOCTYPE svg PUBLIC "-//W3C//DTD SVG 1.1//EN"
  "http://www.w3.org/Graphics/SVG/1.1/DTD/svg11.dtd">
<svg height="345.6pt" version="1.1" viewBox="0 0 460.8 345.6" width="460.8pt" xmlns="http://www.w3.org/2000/svg" xmlns:xlink="http://www.w3.org/1999/xlink">
 <metadata>
  <rdf:RDF xmlns:cc="http://creativecommons.org/ns#" xmlns:dc="http://purl.org/dc/elements/1.1/" xmlns:rdf="http://www.w3.org/1999/02/22-rdf-syntax-ns#">
   <cc:Work>
    <dc:type rdf:resource="http://purl.org/dc/dcmitype/StillImage"/>
    <dc:date>2023-11-18T14:32:57.596375</dc:date>
    <dc:format>image/svg+xml</dc:format>
    <dc:creator>
     <cc:Agent>
      <dc:title>Matplotlib v3.4.3, https://matplotlib.org/</dc:title>
     </cc:Agent>
    </dc:creator>
   </cc:Work>
  </rdf:RDF>
 </metadata>
 <defs>
  <style type="text/css">*{stroke-linecap:butt;stroke-linejoin:round;}</style>
 </defs>
 <g id="figure_1">
  <g id="patch_1">
   <path d="M 0 345.6 
L 460.8 345.6 
L 460.8 0 
L 0 0 
z
" style="fill:#ffffff;"/>
  </g>
  <g id="axes_1">
   <g id="patch_2">
    <path d="M 57.6 307.584 
L 414.72 307.584 
L 414.72 41.472 
L 57.6 41.472 
z
" style="fill:#ffffff;"/>
   </g>
   <g id="PolyCollection_1">
    <defs>
     <path d="M 147.276543 -38.547366 
L 147.276543 -38.016 
L 148.169844 -38.016 
L 149.063145 -38.016 
L 149.956446 -38.016 
L 150.849747 -38.016 
L 151.743048 -38.016 
L 152.636349 -38.016 
L 153.52965 -38.016 
L 154.422951 -38.016 
L 155.316252 -38.016 
L 156.209553 -38.016 
L 157.102855 -38.016 
L 157.996156 -38.016 
L 158.889457 -38.016 
L 159.782758 -38.016 
L 160.676059 -38.016 
L 161.56936 -38.016 
L 162.462661 -38.016 
L 163.355962 -38.016 
L 164.249263 -38.016 
L 165.142564 -38.016 
L 166.035865 -38.016 
L 166.929166 -38.016 
L 167.822467 -38.016 
L 168.715769 -38.016 
L 169.60907 -38.016 
L 170.502371 -38.016 
L 171.395672 -38.016 
L 172.288973 -38.016 
L 173.182274 -38.016 
L 174.075575 -38.016 
L 174.968876 -38.016 
L 175.862177 -38.016 
L 176.755478 -38.016 
L 177.648779 -38.016 
L 178.54208 -38.016 
L 179.435382 -38.016 
L 180.328683 -38.016 
L 181.221984 -38.016 
L 182.115285 -38.016 
L 183.008586 -38.016 
L 183.901887 -38.016 
L 184.795188 -38.016 
L 185.688489 -38.016 
L 186.58179 -38.016 
L 187.475091 -38.016 
L 188.368392 -38.016 
L 189.261693 -38.016 
L 190.154994 -38.016 
L 191.048296 -38.016 
L 191.941597 -38.016 
L 192.834898 -38.016 
L 193.728199 -38.016 
L 194.6215 -38.016 
L 195.514801 -38.016 
L 196.408102 -38.016 
L 197.301403 -38.016 
L 198.194704 -38.016 
L 199.088005 -38.016 
L 199.981306 -38.016 
L 200.874607 -38.016 
L 201.767908 -38.016 
L 202.66121 -38.016 
L 203.554511 -38.016 
L 204.447812 -38.016 
L 205.341113 -38.016 
L 206.234414 -38.016 
L 207.127715 -38.016 
L 208.021016 -38.016 
L 208.914317 -38.016 
L 209.807618 -38.016 
L 210.700919 -38.016 
L 211.59422 -38.016 
L 212.487521 -38.016 
L 213.380822 -38.016 
L 214.274124 -38.016 
L 215.167425 -38.016 
L 216.060726 -38.016 
L 216.954027 -38.016 
L 217.847328 -38.016 
L 218.740629 -38.016 
L 219.63393 -38.016 
L 220.527231 -38.016 
L 221.420532 -38.016 
L 222.313833 -38.016 
L 223.207134 -38.016 
L 224.100435 -38.016 
L 224.993737 -38.016 
L 225.887038 -38.016 
L 226.780339 -38.016 
L 227.67364 -38.016 
L 228.566941 -38.016 
L 229.460242 -38.016 
L 230.353543 -38.016 
L 231.246844 -38.016 
L 232.140145 -38.016 
L 233.033446 -38.016 
L 233.926747 -38.016 
L 234.820048 -38.016 
L 235.713349 -38.016 
L 236.606651 -38.016 
L 237.499952 -38.016 
L 238.393253 -38.016 
L 239.286554 -38.016 
L 240.179855 -38.016 
L 241.073156 -38.016 
L 241.966457 -38.016 
L 242.859758 -38.016 
L 243.753059 -38.016 
L 244.64636 -38.016 
L 245.539661 -38.016 
L 246.432962 -38.016 
L 247.326263 -38.016 
L 248.219565 -38.016 
L 249.112866 -38.016 
L 250.006167 -38.016 
L 250.899468 -38.016 
L 251.792769 -38.016 
L 252.68607 -38.016 
L 253.579371 -38.016 
L 254.472672 -38.016 
L 255.365973 -38.016 
L 256.259274 -38.016 
L 257.152575 -38.016 
L 258.045876 -38.016 
L 258.939178 -38.016 
L 259.832479 -38.016 
L 260.72578 -38.016 
L 261.619081 -38.016 
L 262.512382 -38.016 
L 263.405683 -38.016 
L 264.298984 -38.016 
L 265.192285 -38.016 
L 266.085586 -38.016 
L 266.978887 -38.016 
L 267.872188 -38.016 
L 268.765489 -38.016 
L 269.65879 -38.016 
L 270.552092 -38.016 
L 271.445393 -38.016 
L 272.338694 -38.016 
L 273.231995 -38.016 
L 274.125296 -38.016 
L 275.018597 -38.016 
L 275.911898 -38.016 
L 276.805199 -38.016 
L 277.6985 -38.016 
L 278.591801 -38.016 
L 279.485102 -38.016 
L 280.378403 -38.016 
L 281.271704 -38.016 
L 282.165006 -38.016 
L 283.058307 -38.016 
L 283.951608 -38.016 
L 284.844909 -38.016 
L 285.73821 -38.016 
L 286.631511 -38.016 
L 287.524812 -38.016 
L 288.418113 -38.016 
L 289.311414 -38.016 
L 290.204715 -38.016 
L 291.098016 -38.016 
L 291.991317 -38.016 
L 292.884618 -38.016 
L 293.77792 -38.016 
L 294.671221 -38.016 
L 295.564522 -38.016 
L 296.457823 -38.016 
L 297.351124 -38.016 
L 298.244425 -38.016 
L 299.137726 -38.016 
L 300.031027 -38.016 
L 300.924328 -38.016 
L 301.817629 -38.016 
L 302.71093 -38.016 
L 303.604231 -38.016 
L 304.497533 -38.016 
L 305.390834 -38.016 
L 306.284135 -38.016 
L 307.177436 -38.016 
L 308.070737 -38.016 
L 308.964038 -38.016 
L 309.857339 -38.016 
L 310.75064 -38.016 
L 311.643941 -38.016 
L 312.537242 -38.016 
L 313.430543 -38.016 
L 314.323844 -38.016 
L 315.217145 -38.016 
L 316.110447 -38.016 
L 317.003748 -38.016 
L 317.897049 -38.016 
L 318.79035 -38.016 
L 319.683651 -38.016 
L 320.576952 -38.016 
L 321.470253 -38.016 
L 322.363554 -38.016 
L 323.256855 -38.016 
L 324.150156 -38.016 
L 325.043457 -38.016 
L 325.043457 -38.61361 
L 325.043457 -38.61361 
L 324.150156 -42.244062 
L 323.256855 -57.134279 
L 322.363554 -94.533082 
L 321.470253 -151.902481 
L 320.576952 -205.636187 
L 319.683651 -236.124754 
L 318.79035 -246.54504 
L 317.897049 -251.123077 
L 317.003748 -256.597584 
L 316.110447 -257.205107 
L 315.217145 -245.16496 
L 314.323844 -220.818534 
L 313.430543 -195.100429 
L 312.537242 -184.25914 
L 311.643941 -194.027387 
L 310.75064 -207.166573 
L 309.857339 -201.347483 
L 308.964038 -182.57868 
L 308.070737 -175.813432 
L 307.177436 -188.292734 
L 306.284135 -213.834037 
L 305.390834 -247.567675 
L 304.497533 -270.948955 
L 303.604231 -257.553211 
L 302.71093 -209.070768 
L 301.817629 -162.274334 
L 300.924328 -150.117747 
L 300.031027 -164.656873 
L 299.137726 -176.436071 
L 298.244425 -176.072691 
L 297.351124 -176.47173 
L 296.457823 -190.919674 
L 295.564522 -213.541734 
L 294.671221 -223.935662 
L 293.77792 -213.672656 
L 292.884618 -192.213743 
L 291.991317 -176.01923 
L 291.098016 -176.864275 
L 290.204715 -190.104842 
L 289.311414 -205.054716 
L 288.418113 -220.267096 
L 287.524812 -240.601632 
L 286.631511 -264.251364 
L 285.73821 -276.473206 
L 284.844909 -269.384904 
L 283.951608 -253.34666 
L 283.058307 -235.947721 
L 282.165006 -216.507498 
L 281.271704 -201.19408 
L 280.378403 -200.440033 
L 279.485102 -214.404675 
L 278.591801 -232.537048 
L 277.6985 -246.501392 
L 276.805199 -252.949872 
L 275.911898 -249.158609 
L 275.018597 -239.439424 
L 274.125296 -237.964496 
L 273.231995 -248.346795 
L 272.338694 -249.534424 
L 271.445393 -229.028992 
L 270.552092 -208.158532 
L 269.65879 -209.756595 
L 268.765489 -223.623703 
L 267.872188 -223.386568 
L 266.978887 -204.915277 
L 266.085586 -183.485831 
L 265.192285 -166.329086 
L 264.298984 -153.675119 
L 263.405683 -152.939406 
L 262.512382 -170.107352 
L 261.619081 -198.414948 
L 260.72578 -224.12183 
L 259.832479 -235.107695 
L 258.939178 -231.345517 
L 258.045876 -225.67502 
L 257.152575 -225.398954 
L 256.259274 -223.484977 
L 255.365973 -212.994528 
L 254.472672 -202.080158 
L 253.579371 -210.540251 
L 252.68607 -244.421026 
L 251.792769 -278.683443 
L 250.899468 -291.456 
L 250.006167 -290.13398 
L 249.112866 -278.718699 
L 248.219565 -247.106779 
L 247.326263 -203.708729 
L 246.432962 -173.856072 
L 245.539661 -166.796794 
L 244.64636 -173.006246 
L 243.753059 -179.129693 
L 242.859758 -176.895089 
L 241.966457 -167.386974 
L 241.073156 -153.480822 
L 240.179855 -139.265978 
L 239.286554 -137.315972 
L 238.393253 -155.92161 
L 237.499952 -183.032154 
L 236.606651 -202.632432 
L 235.713349 -216.371324 
L 234.820048 -228.1982 
L 233.926747 -228.845014 
L 233.033446 -215.025294 
L 232.140145 -204.938122 
L 231.246844 -214.368127 
L 230.353543 -234.495645 
L 229.460242 -248.97443 
L 228.566941 -253.691538 
L 227.67364 -251.379046 
L 226.780339 -241.435599 
L 225.887038 -225.739464 
L 224.993737 -216.077663 
L 224.100435 -222.631915 
L 223.207134 -232.220278 
L 222.313833 -220.656719 
L 221.420532 -192.237688 
L 220.527231 -175.922971 
L 219.63393 -185.660476 
L 218.740629 -206.396687 
L 217.847328 -217.512931 
L 216.954027 -222.351247 
L 216.060726 -233.638255 
L 215.167425 -240.506144 
L 214.274124 -229.232931 
L 213.380822 -212.227033 
L 212.487521 -200.662497 
L 211.59422 -190.24894 
L 210.700919 -182.576987 
L 209.807618 -176.436429 
L 208.914317 -165.111 
L 208.021016 -158.089626 
L 207.127715 -166.071329 
L 206.234414 -179.208186 
L 205.341113 -183.84095 
L 204.447812 -180.432884 
L 203.554511 -176.763653 
L 202.66121 -177.559221 
L 201.767908 -184.600594 
L 200.874607 -196.741419 
L 199.981306 -206.087457 
L 199.088005 -204.854194 
L 198.194704 -195.782456 
L 197.301403 -188.927674 
L 196.408102 -195.590497 
L 195.514801 -218.449503 
L 194.6215 -240.873538 
L 193.728199 -241.204245 
L 192.834898 -217.066458 
L 191.941597 -189.375029 
L 191.048296 -180.71056 
L 190.154994 -190.835517 
L 189.261693 -200.573587 
L 188.368392 -193.432488 
L 187.475091 -175.722445 
L 186.58179 -174.212003 
L 185.688489 -200.978528 
L 184.795188 -236.229988 
L 183.901887 -253.022468 
L 183.008586 -246.60902 
L 182.115285 -235.234757 
L 181.221984 -227.060109 
L 180.328683 -209.332572 
L 179.435382 -183.160697 
L 178.54208 -169.366384 
L 177.648779 -171.688744 
L 176.755478 -174.129102 
L 175.862177 -172.038554 
L 174.968876 -172.220719 
L 174.075575 -176.788274 
L 173.182274 -187.412187 
L 172.288973 -201.562571 
L 171.395672 -208.227066 
L 170.502371 -202.786021 
L 169.60907 -193.108888 
L 168.715769 -190.473549 
L 167.822467 -197.493033 
L 166.929166 -207.704784 
L 166.035865 -216.97711 
L 165.142564 -225.452841 
L 164.249263 -231.385713 
L 163.355962 -230.452336 
L 162.462661 -221.641924 
L 161.56936 -210.170015 
L 160.676059 -198.673344 
L 159.782758 -183.358823 
L 158.889457 -162.860685 
L 157.996156 -142.856133 
L 157.102855 -133.298297 
L 156.209553 -140.522046 
L 155.316252 -158.062292 
L 154.422951 -173.272871 
L 153.52965 -181.577746 
L 152.636349 -184.102065 
L 151.743048 -172.3665 
L 150.849747 -135.705024 
L 149.956446 -88.199188 
L 149.063145 -55.153757 
L 148.169844 -41.797068 
L 147.276543 -38.547366 
z
" id="m2a48e6a403" style="stroke:#919191;stroke-width:1.8;"/>
    </defs>
    <g clip-path="url(#p7b66b91083)">
     <use style="fill:#919191;fill-opacity:0.25;stroke:#919191;stroke-width:1.8;" x="0" xlink:href="#m2a48e6a403" y="345.6"/>
    </g>
   </g>
   <g id="PolyCollection_2">
    <defs>
     <path d="M 141.478347 -38.370709 
L 141.478347 -38.016 
L 142.429921 -38.016 
L 143.381496 -38.016 
L 144.33307 -38.016 
L 145.284644 -38.016 
L 146.236219 -38.016 
L 147.187793 -38.016 
L 148.139368 -38.016 
L 149.090942 -38.016 
L 150.042516 -38.016 
L 150.994091 -38.016 
L 151.945665 -38.016 
L 152.89724 -38.016 
L 153.848814 -38.016 
L 154.800388 -38.016 
L 155.751963 -38.016 
L 156.703537 -38.016 
L 157.655112 -38.016 
L 158.606686 -38.016 
L 159.55826 -38.016 
L 160.509835 -38.016 
L 161.461409 -38.016 
L 162.412984 -38.016 
L 163.364558 -38.016 
L 164.316132 -38.016 
L 165.267707 -38.016 
L 166.219281 -38.016 
L 167.170856 -38.016 
L 168.12243 -38.016 
L 169.074004 -38.016 
L 170.025579 -38.016 
L 170.977153 -38.016 
L 171.928728 -38.016 
L 172.880302 -38.016 
L 173.831876 -38.016 
L 174.783451 -38.016 
L 175.735025 -38.016 
L 176.6866 -38.016 
L 177.638174 -38.016 
L 178.589749 -38.016 
L 179.541323 -38.016 
L 180.492897 -38.016 
L 181.444472 -38.016 
L 182.396046 -38.016 
L 183.347621 -38.016 
L 184.299195 -38.016 
L 185.250769 -38.016 
L 186.202344 -38.016 
L 187.153918 -38.016 
L 188.105493 -38.016 
L 189.057067 -38.016 
L 190.008641 -38.016 
L 190.960216 -38.016 
L 191.91179 -38.016 
L 192.863365 -38.016 
L 193.814939 -38.016 
L 194.766513 -38.016 
L 195.718088 -38.016 
L 196.669662 -38.016 
L 197.621237 -38.016 
L 198.572811 -38.016 
L 199.524385 -38.016 
L 200.47596 -38.016 
L 201.427534 -38.016 
L 202.379109 -38.016 
L 203.330683 -38.016 
L 204.282257 -38.016 
L 205.233832 -38.016 
L 206.185406 -38.016 
L 207.136981 -38.016 
L 208.088555 -38.016 
L 209.040129 -38.016 
L 209.991704 -38.016 
L 210.943278 -38.016 
L 211.894853 -38.016 
L 212.846427 -38.016 
L 213.798001 -38.016 
L 214.749576 -38.016 
L 215.70115 -38.016 
L 216.652725 -38.016 
L 217.604299 -38.016 
L 218.555874 -38.016 
L 219.507448 -38.016 
L 220.459022 -38.016 
L 221.410597 -38.016 
L 222.362171 -38.016 
L 223.313746 -38.016 
L 224.26532 -38.016 
L 225.216894 -38.016 
L 226.168469 -38.016 
L 227.120043 -38.016 
L 228.071618 -38.016 
L 229.023192 -38.016 
L 229.974766 -38.016 
L 230.926341 -38.016 
L 231.877915 -38.016 
L 232.82949 -38.016 
L 233.781064 -38.016 
L 234.732638 -38.016 
L 235.684213 -38.016 
L 236.635787 -38.016 
L 237.587362 -38.016 
L 238.538936 -38.016 
L 239.49051 -38.016 
L 240.442085 -38.016 
L 241.393659 -38.016 
L 242.345234 -38.016 
L 243.296808 -38.016 
L 244.248382 -38.016 
L 245.199957 -38.016 
L 246.151531 -38.016 
L 247.103106 -38.016 
L 248.05468 -38.016 
L 249.006254 -38.016 
L 249.957829 -38.016 
L 250.909403 -38.016 
L 251.860978 -38.016 
L 252.812552 -38.016 
L 253.764126 -38.016 
L 254.715701 -38.016 
L 255.667275 -38.016 
L 256.61885 -38.016 
L 257.570424 -38.016 
L 258.521999 -38.016 
L 259.473573 -38.016 
L 260.425147 -38.016 
L 261.376722 -38.016 
L 262.328296 -38.016 
L 263.279871 -38.016 
L 264.231445 -38.016 
L 265.183019 -38.016 
L 266.134594 -38.016 
L 267.086168 -38.016 
L 268.037743 -38.016 
L 268.989317 -38.016 
L 269.940891 -38.016 
L 270.892466 -38.016 
L 271.84404 -38.016 
L 272.795615 -38.016 
L 273.747189 -38.016 
L 274.698763 -38.016 
L 275.650338 -38.016 
L 276.601912 -38.016 
L 277.553487 -38.016 
L 278.505061 -38.016 
L 279.456635 -38.016 
L 280.40821 -38.016 
L 281.359784 -38.016 
L 282.311359 -38.016 
L 283.262933 -38.016 
L 284.214507 -38.016 
L 285.166082 -38.016 
L 286.117656 -38.016 
L 287.069231 -38.016 
L 288.020805 -38.016 
L 288.972379 -38.016 
L 289.923954 -38.016 
L 290.875528 -38.016 
L 291.827103 -38.016 
L 292.778677 -38.016 
L 293.730251 -38.016 
L 294.681826 -38.016 
L 295.6334 -38.016 
L 296.584975 -38.016 
L 297.536549 -38.016 
L 298.488124 -38.016 
L 299.439698 -38.016 
L 300.391272 -38.016 
L 301.342847 -38.016 
L 302.294421 -38.016 
L 303.245996 -38.016 
L 304.19757 -38.016 
L 305.149144 -38.016 
L 306.100719 -38.016 
L 307.052293 -38.016 
L 308.003868 -38.016 
L 308.955442 -38.016 
L 309.907016 -38.016 
L 310.858591 -38.016 
L 311.810165 -38.016 
L 312.76174 -38.016 
L 313.713314 -38.016 
L 314.664888 -38.016 
L 315.616463 -38.016 
L 316.568037 -38.016 
L 317.519612 -38.016 
L 318.471186 -38.016 
L 319.42276 -38.016 
L 320.374335 -38.016 
L 321.325909 -38.016 
L 322.277484 -38.016 
L 323.229058 -38.016 
L 324.180632 -38.016 
L 325.132207 -38.016 
L 326.083781 -38.016 
L 327.035356 -38.016 
L 327.98693 -38.016 
L 328.938504 -38.016 
L 329.890079 -38.016 
L 330.841653 -38.016 
L 330.841653 -38.427369 
L 330.841653 -38.427369 
L 329.890079 -39.030912 
L 328.938504 -40.326102 
L 327.98693 -42.872779 
L 327.035356 -47.460903 
L 326.083781 -55.034817 
L 325.132207 -66.490451 
L 324.180632 -82.364268 
L 323.229058 -102.508815 
L 322.277484 -125.901036 
L 321.325909 -150.706902 
L 320.374335 -174.622761 
L 319.42276 -195.384888 
L 318.471186 -211.265143 
L 317.519612 -221.394385 
L 316.568037 -225.846423 
L 315.616463 -225.505685 
L 314.664888 -221.789681 
L 313.713314 -216.31103 
L 312.76174 -210.566936 
L 311.810165 -205.732352 
L 310.858591 -202.585029 
L 309.907016 -201.515328 
L 308.955442 -202.529774 
L 308.003868 -205.200435 
L 307.052293 -208.622366 
L 306.100719 -211.517791 
L 305.149144 -212.57374 
L 304.19757 -210.931382 
L 303.245996 -206.588303 
L 302.294421 -200.470007 
L 301.342847 -194.098785 
L 300.391272 -189.017319 
L 299.439698 -186.247525 
L 298.488124 -186.012919 
L 297.536549 -187.792403 
L 296.584975 -190.627135 
L 295.6334 -193.536621 
L 294.681826 -195.898878 
L 293.730251 -197.673261 
L 292.778677 -199.386828 
L 291.827103 -201.880713 
L 290.875528 -205.91009 
L 289.923954 -211.760865 
L 288.972379 -219.043353 
L 288.020805 -226.748474 
L 287.069231 -233.546764 
L 286.117656 -238.221449 
L 285.166082 -240.080536 
L 284.214507 -239.198338 
L 283.262933 -236.393443 
L 282.311359 -232.945671 
L 281.359784 -230.157237 
L 280.40821 -228.928629 
L 279.456635 -229.511824 
L 278.505061 -231.520387 
L 277.553487 -234.157728 
L 276.601912 -236.534813 
L 275.650338 -237.934936 
L 274.698763 -237.943713 
L 273.747189 -236.446553 
L 272.795615 -233.546537 
L 271.84404 -229.456987 
L 270.892466 -224.40516 
L 269.940891 -218.578728 
L 268.989317 -212.148346 
L 268.037743 -205.373545 
L 267.086168 -198.737181 
L 266.134594 -193.000259 
L 265.183019 -189.084469 
L 264.231445 -187.786224 
L 263.279871 -189.444475 
L 262.328296 -193.739775 
L 261.376722 -199.7499 
L 260.425147 -206.257755 
L 259.473573 -212.180179 
L 258.521999 -216.932727 
L 257.570424 -220.582956 
L 256.61885 -223.737521 
L 255.667275 -227.206854 
L 254.715701 -231.56712 
L 253.764126 -236.783637 
L 252.812552 -242.059714 
L 251.860978 -246.008633 
L 250.909403 -247.115473 
L 249.957829 -244.310891 
L 249.006254 -237.403955 
L 248.05468 -227.173346 
L 247.103106 -215.080341 
L 246.151531 -202.755693 
L 245.199957 -191.518213 
L 244.248382 -182.143275 
L 243.296808 -174.939471 
L 242.345234 -170.010738 
L 241.393659 -167.490854 
L 240.442085 -167.58805 
L 239.49051 -170.426938 
L 238.538936 -175.820036 
L 237.587362 -183.14873 
L 236.635787 -191.460332 
L 235.684213 -199.74792 
L 234.732638 -207.263955 
L 233.781064 -213.696751 
L 232.82949 -219.120761 
L 231.877915 -223.765511 
L 230.926341 -227.751374 
L 229.974766 -230.949173 
L 229.023192 -233.031201 
L 228.071618 -233.656363 
L 227.120043 -232.658767 
L 226.168469 -230.133844 
L 225.216894 -226.408779 
L 224.26532 -221.963355 
L 223.313746 -217.369917 
L 222.362171 -213.256811 
L 221.410597 -210.240501 
L 220.459022 -208.782762 
L 219.507448 -209.005173 
L 218.555874 -210.562583 
L 217.604299 -212.673259 
L 216.652725 -214.324199 
L 215.70115 -214.574881 
L 214.749576 -212.835442 
L 213.798001 -209.017154 
L 212.846427 -203.519507 
L 211.894853 -197.085851 
L 210.943278 -190.596197 
L 209.991704 -184.864652 
L 209.040129 -180.486587 
L 208.088555 -177.758792 
L 207.136981 -176.681467 
L 206.185406 -177.034367 
L 205.233832 -178.494583 
L 204.282257 -180.744366 
L 203.330683 -183.526852 
L 202.379109 -186.647163 
L 201.427534 -189.954231 
L 200.47596 -193.337955 
L 199.524385 -196.736405 
L 198.572811 -200.112679 
L 197.621237 -203.377049 
L 196.669662 -206.293429 
L 195.718088 -208.458964 
L 194.766513 -209.419774 
L 193.814939 -208.889253 
L 192.863365 -206.94633 
L 191.91179 -204.091015 
L 190.960216 -201.12595 
L 190.008641 -198.933928 
L 189.057067 -198.249886 
L 188.105493 -199.480627 
L 187.153918 -202.578198 
L 186.202344 -206.979816 
L 185.250769 -211.664423 
L 184.299195 -215.37199 
L 183.347621 -216.956939 
L 182.396046 -215.752644 
L 181.444472 -211.79146 
L 180.492897 -205.786082 
L 179.541323 -198.891498 
L 178.589749 -192.359115 
L 177.638174 -187.21855 
L 176.6866 -184.080654 
L 175.735025 -183.08649 
L 174.783451 -183.974535 
L 173.831876 -186.221838 
L 172.880302 -189.220807 
L 171.928728 -192.455178 
L 170.977153 -195.627813 
L 170.025579 -198.689366 
L 169.074004 -201.745637 
L 168.12243 -204.879413 
L 167.170856 -207.973513 
L 166.219281 -210.627061 
L 165.267707 -212.210816 
L 164.316132 -212.040422 
L 163.364558 -209.598804 
L 162.412984 -204.729625 
L 161.461409 -197.742929 
L 160.509835 -189.400073 
L 159.55826 -180.76651 
L 158.606686 -172.94486 
L 157.655112 -166.7386 
L 156.703537 -162.343819 
L 155.751963 -159.194197 
L 154.800388 -156.058943 
L 153.848814 -151.406061 
L 152.89724 -143.92528 
L 151.945665 -133.015633 
L 150.994091 -119.035985 
L 150.042516 -103.208942 
L 149.090942 -87.221011 
L 148.139368 -72.696191 
L 147.187793 -60.762638 
L 146.236219 -51.862387 
L 145.284644 -45.82145 
L 144.33307 -42.083645 
L 143.381496 -39.972845 
L 142.429921 -38.884033 
L 141.478347 -38.370709 
z
" id="m4003dd60b6" style="stroke:#7d87a5;stroke-width:1.8;"/>
    </defs>
    <g clip-path="url(#p7b66b91083)">
     <use style="fill:#7d87a5;fill-opacity:0.25;stroke:#7d87a5;stroke-width:1.8;" x="0" xlink:href="#m4003dd60b6" y="345.6"/>
    </g>
   </g>
   <g id="PolyCollection_3">
    <defs>
     <path d="M 131.814687 -38.28887 
L 131.814687 -38.016 
L 132.863383 -38.016 
L 133.91208 -38.016 
L 134.960777 -38.016 
L 136.009473 -38.016 
L 137.05817 -38.016 
L 138.106867 -38.016 
L 139.155563 -38.016 
L 140.20426 -38.016 
L 141.252956 -38.016 
L 142.301653 -38.016 
L 143.35035 -38.016 
L 144.399046 -38.016 
L 145.447743 -38.016 
L 146.496439 -38.016 
L 147.545136 -38.016 
L 148.593833 -38.016 
L 149.642529 -38.016 
L 150.691226 -38.016 
L 151.739922 -38.016 
L 152.788619 -38.016 
L 153.837316 -38.016 
L 154.886012 -38.016 
L 155.934709 -38.016 
L 156.983406 -38.016 
L 158.032102 -38.016 
L 159.080799 -38.016 
L 160.129495 -38.016 
L 161.178192 -38.016 
L 162.226889 -38.016 
L 163.275585 -38.016 
L 164.324282 -38.016 
L 165.372978 -38.016 
L 166.421675 -38.016 
L 167.470372 -38.016 
L 168.519068 -38.016 
L 169.567765 -38.016 
L 170.616462 -38.016 
L 171.665158 -38.016 
L 172.713855 -38.016 
L 173.762551 -38.016 
L 174.811248 -38.016 
L 175.859945 -38.016 
L 176.908641 -38.016 
L 177.957338 -38.016 
L 179.006034 -38.016 
L 180.054731 -38.016 
L 181.103428 -38.016 
L 182.152124 -38.016 
L 183.200821 -38.016 
L 184.249518 -38.016 
L 185.298214 -38.016 
L 186.346911 -38.016 
L 187.395607 -38.016 
L 188.444304 -38.016 
L 189.493001 -38.016 
L 190.541697 -38.016 
L 191.590394 -38.016 
L 192.63909 -38.016 
L 193.687787 -38.016 
L 194.736484 -38.016 
L 195.78518 -38.016 
L 196.833877 -38.016 
L 197.882574 -38.016 
L 198.93127 -38.016 
L 199.979967 -38.016 
L 201.028663 -38.016 
L 202.07736 -38.016 
L 203.126057 -38.016 
L 204.174753 -38.016 
L 205.22345 -38.016 
L 206.272146 -38.016 
L 207.320843 -38.016 
L 208.36954 -38.016 
L 209.418236 -38.016 
L 210.466933 -38.016 
L 211.51563 -38.016 
L 212.564326 -38.016 
L 213.613023 -38.016 
L 214.661719 -38.016 
L 215.710416 -38.016 
L 216.759113 -38.016 
L 217.807809 -38.016 
L 218.856506 -38.016 
L 219.905202 -38.016 
L 220.953899 -38.016 
L 222.002596 -38.016 
L 223.051292 -38.016 
L 224.099989 -38.016 
L 225.148686 -38.016 
L 226.197382 -38.016 
L 227.246079 -38.016 
L 228.294775 -38.016 
L 229.343472 -38.016 
L 230.392169 -38.016 
L 231.440865 -38.016 
L 232.489562 -38.016 
L 233.538258 -38.016 
L 234.586955 -38.016 
L 235.635652 -38.016 
L 236.684348 -38.016 
L 237.733045 -38.016 
L 238.781742 -38.016 
L 239.830438 -38.016 
L 240.879135 -38.016 
L 241.927831 -38.016 
L 242.976528 -38.016 
L 244.025225 -38.016 
L 245.073921 -38.016 
L 246.122618 -38.016 
L 247.171314 -38.016 
L 248.220011 -38.016 
L 249.268708 -38.016 
L 250.317404 -38.016 
L 251.366101 -38.016 
L 252.414798 -38.016 
L 253.463494 -38.016 
L 254.512191 -38.016 
L 255.560887 -38.016 
L 256.609584 -38.016 
L 257.658281 -38.016 
L 258.706977 -38.016 
L 259.755674 -38.016 
L 260.80437 -38.016 
L 261.853067 -38.016 
L 262.901764 -38.016 
L 263.95046 -38.016 
L 264.999157 -38.016 
L 266.047854 -38.016 
L 267.09655 -38.016 
L 268.145247 -38.016 
L 269.193943 -38.016 
L 270.24264 -38.016 
L 271.291337 -38.016 
L 272.340033 -38.016 
L 273.38873 -38.016 
L 274.437426 -38.016 
L 275.486123 -38.016 
L 276.53482 -38.016 
L 277.583516 -38.016 
L 278.632213 -38.016 
L 279.68091 -38.016 
L 280.729606 -38.016 
L 281.778303 -38.016 
L 282.826999 -38.016 
L 283.875696 -38.016 
L 284.924393 -38.016 
L 285.973089 -38.016 
L 287.021786 -38.016 
L 288.070482 -38.016 
L 289.119179 -38.016 
L 290.167876 -38.016 
L 291.216572 -38.016 
L 292.265269 -38.016 
L 293.313966 -38.016 
L 294.362662 -38.016 
L 295.411359 -38.016 
L 296.460055 -38.016 
L 297.508752 -38.016 
L 298.557449 -38.016 
L 299.606145 -38.016 
L 300.654842 -38.016 
L 301.703538 -38.016 
L 302.752235 -38.016 
L 303.800932 -38.016 
L 304.849628 -38.016 
L 305.898325 -38.016 
L 306.947022 -38.016 
L 307.995718 -38.016 
L 309.044415 -38.016 
L 310.093111 -38.016 
L 311.141808 -38.016 
L 312.190505 -38.016 
L 313.239201 -38.016 
L 314.287898 -38.016 
L 315.336594 -38.016 
L 316.385291 -38.016 
L 317.433988 -38.016 
L 318.482684 -38.016 
L 319.531381 -38.016 
L 320.580078 -38.016 
L 321.628774 -38.016 
L 322.677471 -38.016 
L 323.726167 -38.016 
L 324.774864 -38.016 
L 325.823561 -38.016 
L 326.872257 -38.016 
L 327.920954 -38.016 
L 328.96965 -38.016 
L 330.018347 -38.016 
L 331.067044 -38.016 
L 332.11574 -38.016 
L 333.164437 -38.016 
L 334.213133 -38.016 
L 335.26183 -38.016 
L 336.310527 -38.016 
L 337.359223 -38.016 
L 338.40792 -38.016 
L 339.456617 -38.016 
L 340.505313 -38.016 
L 340.505313 -38.36299 
L 340.505313 -38.36299 
L 339.456617 -38.595742 
L 338.40792 -38.961075 
L 337.359223 -39.519397 
L 336.310527 -40.350118 
L 335.26183 -41.553426 
L 334.213133 -43.250174 
L 333.164437 -45.579013 
L 332.11574 -48.689989 
L 331.067044 -52.734203 
L 330.018347 -57.849665 
L 328.96965 -64.144272 
L 327.920954 -71.677625 
L 326.872257 -80.444155 
L 325.823561 -90.360381 
L 324.774864 -101.259101 
L 323.726167 -112.892621 
L 322.677471 -124.94594 
L 321.628774 -137.059222 
L 320.580078 -148.857215 
L 319.531381 -159.981886 
L 318.482684 -170.123729 
L 317.433988 -179.047233 
L 316.385291 -186.606894 
L 315.336594 -192.751747 
L 314.287898 -197.518412 
L 313.239201 -201.014593 
L 312.190505 -203.396543 
L 311.141808 -204.84473 
L 310.093111 -205.541886 
L 309.044415 -205.656628 
L 307.995718 -205.334393 
L 306.947022 -204.695686 
L 305.898325 -203.840169 
L 304.849628 -202.854097 
L 303.800932 -201.818335 
L 302.752235 -200.814516 
L 301.703538 -199.92779 
L 300.654842 -199.245694 
L 299.606145 -198.853645 
L 298.557449 -198.828298 
L 297.508752 -199.230256 
L 296.460055 -200.097542 
L 295.411359 -201.440891 
L 294.362662 -203.241466 
L 293.313966 -205.451228 
L 292.265269 -207.995885 
L 291.216572 -210.78018 
L 290.167876 -213.695078 
L 289.119179 -216.626262 
L 288.070482 -219.463066 
L 287.021786 -222.106821 
L 285.973089 -224.477428 
L 284.924393 -226.517172 
L 283.875696 -228.191134 
L 282.826999 -229.484225 
L 281.778303 -230.395577 
L 280.729606 -230.931628 
L 279.68091 -231.09962 
L 278.632213 -230.90315 
L 277.583516 -230.340973 
L 276.53482 -229.409494 
L 275.486123 -228.108504 
L 274.437426 -226.448956 
L 273.38873 -224.460993 
L 272.340033 -222.200369 
L 271.291337 -219.751585 
L 270.24264 -217.226664 
L 269.193943 -214.759284 
L 268.145247 -212.494758 
L 267.09655 -210.577134 
L 266.047854 -209.1351 
L 264.999157 -208.268593 
L 263.95046 -208.037804 
L 262.901764 -208.455867 
L 261.853067 -209.48587 
L 260.80437 -211.042242 
L 259.755674 -212.996048 
L 258.706977 -215.183449 
L 257.658281 -217.416526 
L 256.609584 -219.495782 
L 255.560887 -221.223795 
L 254.512191 -222.419543 
L 253.463494 -222.932847 
L 252.414798 -222.658054 
L 251.366101 -221.545768 
L 250.317404 -219.61113 
L 249.268708 -216.937128 
L 248.220011 -213.671752 
L 247.171314 -210.018461 
L 246.122618 -206.220374 
L 245.073921 -202.539592 
L 244.025225 -199.233853 
L 242.976528 -196.533261 
L 241.927831 -194.619816 
L 240.879135 -193.612093 
L 239.830438 -193.556671 
L 238.781742 -194.42693 
L 237.733045 -196.128892 
L 236.684348 -198.512971 
L 235.635652 -201.389897 
L 234.586955 -204.548873 
L 233.538258 -207.775962 
L 232.489562 -210.871025 
L 231.440865 -213.661813 
L 230.392169 -216.014276 
L 229.343472 -217.838545 
L 228.294775 -219.090394 
L 227.246079 -219.768372 
L 226.197382 -219.907098 
L 225.148686 -219.567608 
L 224.099989 -218.825938 
L 223.051292 -217.761434 
L 222.002596 -216.446366 
L 220.953899 -214.938335 
L 219.905202 -213.276557 
L 218.856506 -211.482532 
L 217.807809 -209.564777 
L 216.759113 -207.526566 
L 215.710416 -205.375015 
L 214.661719 -203.129564 
L 213.613023 -200.828031 
L 212.564326 -198.528905 
L 211.51563 -196.309317 
L 210.466933 -194.258976 
L 209.418236 -192.471123 
L 208.36954 -191.032073 
L 207.320843 -190.011075 
L 206.272146 -189.452058 
L 205.22345 -189.368444 
L 204.174753 -189.741587 
L 203.126057 -190.522902 
L 202.07736 -191.639199 
L 201.028663 -193.000439 
L 199.979967 -194.508884 
L 198.93127 -196.068547 
L 197.882574 -197.59385 
L 196.833877 -199.016464 
L 195.78518 -200.289508 
L 194.736484 -201.388538 
L 193.687787 -202.309205 
L 192.63909 -203.061939 
L 191.590394 -203.664597 
L 190.541697 -204.13445 
L 189.493001 -204.481166 
L 188.444304 -204.702349 
L 187.395607 -204.782782 
L 186.346911 -204.697745 
L 185.298214 -204.419909 
L 184.249518 -203.928375 
L 183.200821 -203.217892 
L 182.152124 -202.306072 
L 181.103428 -201.236779 
L 180.054731 -200.078606 
L 179.006034 -198.918367 
L 177.957338 -197.85053 
L 176.908641 -196.964307 
L 175.859945 -196.330527 
L 174.811248 -195.990366 
L 173.762551 -195.947608 
L 172.713855 -196.165439 
L 171.665158 -196.568042 
L 170.616462 -197.046558 
L 169.567765 -197.468477 
L 168.519068 -197.689159 
L 167.470372 -197.564051 
L 166.421675 -196.960121 
L 165.372978 -195.765233 
L 164.324282 -193.894413 
L 163.275585 -191.292452 
L 162.226889 -187.932825 
L 161.178192 -183.813557 
L 160.129495 -178.951261 
L 159.080799 -173.374933 
L 158.032102 -167.121167 
L 156.983406 -160.232075 
L 155.934709 -152.75648 
L 154.886012 -144.754039 
L 153.837316 -136.301022 
L 152.788619 -127.495848 
L 151.739922 -118.462357 
L 150.691226 -109.349143 
L 149.642529 -100.324167 
L 148.593833 -91.564933 
L 147.545136 -83.245559 
L 146.496439 -75.522825 
L 145.447743 -68.523508 
L 144.399046 -62.335024 
L 143.35035 -57.000742 
L 142.301653 -52.520333 
L 141.252956 -48.854691 
L 140.20426 -45.934187 
L 139.155563 -43.668716 
L 138.106867 -41.95793 
L 137.05817 -40.700358 
L 136.009473 -39.800556 
L 134.960777 -39.173905 
L 133.91208 -38.749122 
L 132.863383 -38.468857 
L 131.814687 -38.28887 
z
" id="m04afd55988" style="stroke:#697db9;stroke-width:1.8;"/>
    </defs>
    <g clip-path="url(#p7b66b91083)">
     <use style="fill:#697db9;fill-opacity:0.25;stroke:#697db9;stroke-width:1.8;" x="0" xlink:href="#m04afd55988" y="345.6"/>
    </g>
   </g>
   <g id="PolyCollection_4">
    <defs>
     <path d="M 112.487367 -38.242364 
L 112.487367 -38.016 
L 113.730308 -38.016 
L 114.973249 -38.016 
L 116.21619 -38.016 
L 117.459131 -38.016 
L 118.702072 -38.016 
L 119.945013 -38.016 
L 121.187954 -38.016 
L 122.430895 -38.016 
L 123.673836 -38.016 
L 124.916777 -38.016 
L 126.159718 -38.016 
L 127.402659 -38.016 
L 128.6456 -38.016 
L 129.888541 -38.016 
L 131.131482 -38.016 
L 132.374424 -38.016 
L 133.617365 -38.016 
L 134.860306 -38.016 
L 136.103247 -38.016 
L 137.346188 -38.016 
L 138.589129 -38.016 
L 139.83207 -38.016 
L 141.075011 -38.016 
L 142.317952 -38.016 
L 143.560893 -38.016 
L 144.803834 -38.016 
L 146.046775 -38.016 
L 147.289716 -38.016 
L 148.532657 -38.016 
L 149.775598 -38.016 
L 151.018539 -38.016 
L 152.26148 -38.016 
L 153.504421 -38.016 
L 154.747362 -38.016 
L 155.990303 -38.016 
L 157.233244 -38.016 
L 158.476185 -38.016 
L 159.719126 -38.016 
L 160.962067 -38.016 
L 162.205008 -38.016 
L 163.447949 -38.016 
L 164.69089 -38.016 
L 165.933831 -38.016 
L 167.176773 -38.016 
L 168.419714 -38.016 
L 169.662655 -38.016 
L 170.905596 -38.016 
L 172.148537 -38.016 
L 173.391478 -38.016 
L 174.634419 -38.016 
L 175.87736 -38.016 
L 177.120301 -38.016 
L 178.363242 -38.016 
L 179.606183 -38.016 
L 180.849124 -38.016 
L 182.092065 -38.016 
L 183.335006 -38.016 
L 184.577947 -38.016 
L 185.820888 -38.016 
L 187.063829 -38.016 
L 188.30677 -38.016 
L 189.549711 -38.016 
L 190.792652 -38.016 
L 192.035593 -38.016 
L 193.278534 -38.016 
L 194.521475 -38.016 
L 195.764416 -38.016 
L 197.007357 -38.016 
L 198.250298 -38.016 
L 199.493239 -38.016 
L 200.73618 -38.016 
L 201.979122 -38.016 
L 203.222063 -38.016 
L 204.465004 -38.016 
L 205.707945 -38.016 
L 206.950886 -38.016 
L 208.193827 -38.016 
L 209.436768 -38.016 
L 210.679709 -38.016 
L 211.92265 -38.016 
L 213.165591 -38.016 
L 214.408532 -38.016 
L 215.651473 -38.016 
L 216.894414 -38.016 
L 218.137355 -38.016 
L 219.380296 -38.016 
L 220.623237 -38.016 
L 221.866178 -38.016 
L 223.109119 -38.016 
L 224.35206 -38.016 
L 225.595001 -38.016 
L 226.837942 -38.016 
L 228.080883 -38.016 
L 229.323824 -38.016 
L 230.566765 -38.016 
L 231.809706 -38.016 
L 233.052647 -38.016 
L 234.295588 -38.016 
L 235.538529 -38.016 
L 236.781471 -38.016 
L 238.024412 -38.016 
L 239.267353 -38.016 
L 240.510294 -38.016 
L 241.753235 -38.016 
L 242.996176 -38.016 
L 244.239117 -38.016 
L 245.482058 -38.016 
L 246.724999 -38.016 
L 247.96794 -38.016 
L 249.210881 -38.016 
L 250.453822 -38.016 
L 251.696763 -38.016 
L 252.939704 -38.016 
L 254.182645 -38.016 
L 255.425586 -38.016 
L 256.668527 -38.016 
L 257.911468 -38.016 
L 259.154409 -38.016 
L 260.39735 -38.016 
L 261.640291 -38.016 
L 262.883232 -38.016 
L 264.126173 -38.016 
L 265.369114 -38.016 
L 266.612055 -38.016 
L 267.854996 -38.016 
L 269.097937 -38.016 
L 270.340878 -38.016 
L 271.58382 -38.016 
L 272.826761 -38.016 
L 274.069702 -38.016 
L 275.312643 -38.016 
L 276.555584 -38.016 
L 277.798525 -38.016 
L 279.041466 -38.016 
L 280.284407 -38.016 
L 281.527348 -38.016 
L 282.770289 -38.016 
L 284.01323 -38.016 
L 285.256171 -38.016 
L 286.499112 -38.016 
L 287.742053 -38.016 
L 288.984994 -38.016 
L 290.227935 -38.016 
L 291.470876 -38.016 
L 292.713817 -38.016 
L 293.956758 -38.016 
L 295.199699 -38.016 
L 296.44264 -38.016 
L 297.685581 -38.016 
L 298.928522 -38.016 
L 300.171463 -38.016 
L 301.414404 -38.016 
L 302.657345 -38.016 
L 303.900286 -38.016 
L 305.143227 -38.016 
L 306.386169 -38.016 
L 307.62911 -38.016 
L 308.872051 -38.016 
L 310.114992 -38.016 
L 311.357933 -38.016 
L 312.600874 -38.016 
L 313.843815 -38.016 
L 315.086756 -38.016 
L 316.329697 -38.016 
L 317.572638 -38.016 
L 318.815579 -38.016 
L 320.05852 -38.016 
L 321.301461 -38.016 
L 322.544402 -38.016 
L 323.787343 -38.016 
L 325.030284 -38.016 
L 326.273225 -38.016 
L 327.516166 -38.016 
L 328.759107 -38.016 
L 330.002048 -38.016 
L 331.244989 -38.016 
L 332.48793 -38.016 
L 333.730871 -38.016 
L 334.973812 -38.016 
L 336.216753 -38.016 
L 337.459694 -38.016 
L 338.702635 -38.016 
L 339.945576 -38.016 
L 341.188518 -38.016 
L 342.431459 -38.016 
L 343.6744 -38.016 
L 344.917341 -38.016 
L 346.160282 -38.016 
L 347.403223 -38.016 
L 348.646164 -38.016 
L 349.889105 -38.016 
L 351.132046 -38.016 
L 352.374987 -38.016 
L 353.617928 -38.016 
L 354.860869 -38.016 
L 356.10381 -38.016 
L 357.346751 -38.016 
L 358.589692 -38.016 
L 359.832633 -38.016 
L 359.832633 -38.322769 
L 359.832633 -38.322769 
L 358.589692 -38.433388 
L 357.346751 -38.578973 
L 356.10381 -38.768774 
L 354.860869 -39.013895 
L 353.617928 -39.32748 
L 352.374987 -39.724874 
L 351.132046 -40.223726 
L 349.889105 -40.84403 
L 348.646164 -41.608069 
L 347.403223 -42.540244 
L 346.160282 -43.666786 
L 344.917341 -45.01531 
L 343.6744 -46.614228 
L 342.431459 -48.492001 
L 341.188518 -50.676252 
L 339.945576 -53.192755 
L 338.702635 -56.06433 
L 337.459694 -59.309685 
L 336.216753 -62.942262 
L 334.973812 -66.969141 
L 333.730871 -71.39007 
L 332.48793 -76.196684 
L 331.244989 -81.371976 
L 330.002048 -86.890071 
L 328.759107 -92.716347 
L 327.516166 -98.80792 
L 326.273225 -105.114506 
L 325.030284 -111.579629 
L 323.787343 -118.142143 
L 322.544402 -124.738012 
L 321.301461 -131.302255 
L 320.05852 -137.77098 
L 318.815579 -144.083395 
L 317.572638 -150.183714 
L 316.329697 -156.022839 
L 315.086756 -161.559761 
L 313.843815 -166.762591 
L 312.600874 -171.609196 
L 311.357933 -176.087391 
L 310.114992 -180.194719 
L 308.872051 -183.937813 
L 307.62911 -187.331413 
L 306.386169 -190.397082 
L 305.143227 -193.161703 
L 303.900286 -195.655846 
L 302.657345 -197.912087 
L 301.414404 -199.963373 
L 300.171463 -201.841491 
L 298.928522 -203.575743 
L 297.685581 -205.191843 
L 296.44264 -206.71111 
L 295.199699 -208.149952 
L 293.956758 -209.519662 
L 292.713817 -210.826515 
L 291.470876 -212.072127 
L 290.227935 -213.254057 
L 288.984994 -214.366593 
L 287.742053 -215.401665 
L 286.499112 -216.349832 
L 285.256171 -217.201289 
L 284.01323 -217.946811 
L 282.770289 -218.578616 
L 281.527348 -219.09107 
L 280.284407 -219.481217 
L 279.041466 -219.749101 
L 277.798525 -219.897872 
L 276.555584 -219.933675 
L 275.312643 -219.865336 
L 274.069702 -219.703883 
L 272.826761 -219.461916 
L 271.58382 -219.152905 
L 270.340878 -218.79044 
L 269.097937 -218.387512 
L 267.854996 -217.955857 
L 266.612055 -217.505432 
L 265.369114 -217.044046 
L 264.126173 -216.577182 
L 262.883232 -216.108024 
L 261.640291 -215.637674 
L 260.39735 -215.165556 
L 259.154409 -214.689948 
L 257.911468 -214.208623 
L 256.668527 -213.719516 
L 255.425586 -213.221369 
L 254.182645 -212.714292 
L 252.939704 -212.200185 
L 251.696763 -211.682975 
L 250.453822 -211.168651 
L 249.210881 -210.665066 
L 247.96794 -210.181546 
L 246.724999 -209.728298 
L 245.482058 -209.315696 
L 244.239117 -208.953479 
L 242.996176 -208.649931 
L 241.753235 -208.411117 
L 240.510294 -208.240235 
L 239.267353 -208.137135 
L 238.024412 -208.09805 
L 236.781471 -208.115576 
L 235.538529 -208.178878 
L 234.295588 -208.27415 
L 233.052647 -208.385262 
L 231.809706 -208.494586 
L 230.566765 -208.583911 
L 229.323824 -208.635423 
L 228.080883 -208.632662 
L 226.837942 -208.561408 
L 225.595001 -208.410439 
L 224.35206 -208.172132 
L 223.109119 -207.84285 
L 221.866178 -207.423132 
L 220.623237 -206.917647 
L 219.380296 -206.334954 
L 218.137355 -205.687057 
L 216.894414 -204.988815 
L 215.651473 -204.257214 
L 214.408532 -203.510564 
L 213.165591 -202.767654 
L 211.92265 -202.046911 
L 210.679709 -201.365599 
L 209.436768 -200.739102 
L 208.193827 -200.180319 
L 206.950886 -199.699188 
L 205.707945 -199.302364 
L 204.465004 -198.993061 
L 203.222063 -198.77104 
L 201.979122 -198.632759 
L 200.73618 -198.571646 
L 199.493239 -198.578484 
L 198.250298 -198.641885 
L 197.007357 -198.748807 
L 195.764416 -198.885089 
L 194.521475 -199.035976 
L 193.278534 -199.186591 
L 192.035593 -199.322336 
L 190.792652 -199.429199 
L 189.549711 -199.493937 
L 188.30677 -199.504156 
L 187.063829 -199.448255 
L 185.820888 -199.315267 
L 184.577947 -199.094605 
L 183.335006 -198.775731 
L 182.092065 -198.347792 
L 180.849124 -197.799243 
L 179.606183 -197.117506 
L 178.363242 -196.288693 
L 177.120301 -195.297431 
L 175.87736 -194.126822 
L 174.634419 -192.758552 
L 173.391478 -191.173178 
L 172.148537 -189.350571 
L 170.905596 -187.270536 
L 169.662655 -184.913563 
L 168.419714 -182.261701 
L 167.176773 -179.299491 
L 165.933831 -176.014927 
L 164.69089 -172.400397 
L 163.447949 -168.453524 
L 162.205008 -164.177887 
L 160.962067 -159.583546 
L 159.719126 -154.687362 
L 158.476185 -149.513047 
L 157.233244 -144.090963 
L 155.990303 -138.457651 
L 154.747362 -132.655095 
L 153.504421 -126.729772 
L 152.26148 -120.7315 
L 151.018539 -114.71215 
L 149.775598 -108.724271 
L 148.532657 -102.819694 
L 147.289716 -97.048163 
L 146.046775 -91.456072 
L 144.803834 -86.085342 
L 143.560893 -80.972485 
L 142.317952 -76.147901 
L 141.075011 -71.635403 
L 139.83207 -67.452003 
L 138.589129 -63.607937 
L 137.346188 -60.106914 
L 136.103247 -56.946563 
L 134.860306 -54.119051 
L 133.617365 -51.611814 
L 132.374424 -49.408381 
L 131.131482 -47.489222 
L 129.888541 -45.832613 
L 128.6456 -44.41545 
L 127.402659 -43.21401 
L 126.159718 -42.204619 
L 124.916777 -41.364223 
L 123.673836 -40.670849 
L 122.430895 -40.103953 
L 121.187954 -39.644665 
L 119.945013 -39.275938 
L 118.702072 -38.982608 
L 117.459131 -38.751384 
L 116.21619 -38.57078 
L 114.973249 -38.431002 
L 113.730308 -38.323811 
L 112.487367 -38.242364 
z
" id="m8de5a615fb" style="stroke:#5573cd;stroke-width:1.8;"/>
    </defs>
    <g clip-path="url(#p7b66b91083)">
     <use style="fill:#5573cd;fill-opacity:0.25;stroke:#5573cd;stroke-width:1.8;" x="0" xlink:href="#m8de5a615fb" y="345.6"/>
    </g>
   </g>
   <g id="PolyCollection_5">
    <defs>
     <path d="M 73.832727 -38.228139 
L 73.832727 -38.016 
L 75.464157 -38.016 
L 77.095587 -38.016 
L 78.727017 -38.016 
L 80.358447 -38.016 
L 81.989877 -38.016 
L 83.621307 -38.016 
L 85.252736 -38.016 
L 86.884166 -38.016 
L 88.515596 -38.016 
L 90.147026 -38.016 
L 91.778456 -38.016 
L 93.409886 -38.016 
L 95.041316 -38.016 
L 96.672746 -38.016 
L 98.304175 -38.016 
L 99.935605 -38.016 
L 101.567035 -38.016 
L 103.198465 -38.016 
L 104.829895 -38.016 
L 106.461325 -38.016 
L 108.092755 -38.016 
L 109.724185 -38.016 
L 111.355614 -38.016 
L 112.987044 -38.016 
L 114.618474 -38.016 
L 116.249904 -38.016 
L 117.881334 -38.016 
L 119.512764 -38.016 
L 121.144194 -38.016 
L 122.775624 -38.016 
L 124.407053 -38.016 
L 126.038483 -38.016 
L 127.669913 -38.016 
L 129.301343 -38.016 
L 130.932773 -38.016 
L 132.564203 -38.016 
L 134.195633 -38.016 
L 135.827063 -38.016 
L 137.458492 -38.016 
L 139.089922 -38.016 
L 140.721352 -38.016 
L 142.352782 -38.016 
L 143.984212 -38.016 
L 145.615642 -38.016 
L 147.247072 -38.016 
L 148.878502 -38.016 
L 150.509931 -38.016 
L 152.141361 -38.016 
L 153.772791 -38.016 
L 155.404221 -38.016 
L 157.035651 -38.016 
L 158.667081 -38.016 
L 160.298511 -38.016 
L 161.929941 -38.016 
L 163.56137 -38.016 
L 165.1928 -38.016 
L 166.82423 -38.016 
L 168.45566 -38.016 
L 170.08709 -38.016 
L 171.71852 -38.016 
L 173.34995 -38.016 
L 174.98138 -38.016 
L 176.61281 -38.016 
L 178.244239 -38.016 
L 179.875669 -38.016 
L 181.507099 -38.016 
L 183.138529 -38.016 
L 184.769959 -38.016 
L 186.401389 -38.016 
L 188.032819 -38.016 
L 189.664249 -38.016 
L 191.295678 -38.016 
L 192.927108 -38.016 
L 194.558538 -38.016 
L 196.189968 -38.016 
L 197.821398 -38.016 
L 199.452828 -38.016 
L 201.084258 -38.016 
L 202.715688 -38.016 
L 204.347117 -38.016 
L 205.978547 -38.016 
L 207.609977 -38.016 
L 209.241407 -38.016 
L 210.872837 -38.016 
L 212.504267 -38.016 
L 214.135697 -38.016 
L 215.767127 -38.016 
L 217.398556 -38.016 
L 219.029986 -38.016 
L 220.661416 -38.016 
L 222.292846 -38.016 
L 223.924276 -38.016 
L 225.555706 -38.016 
L 227.187136 -38.016 
L 228.818566 -38.016 
L 230.449995 -38.016 
L 232.081425 -38.016 
L 233.712855 -38.016 
L 235.344285 -38.016 
L 236.975715 -38.016 
L 238.607145 -38.016 
L 240.238575 -38.016 
L 241.870005 -38.016 
L 243.501434 -38.016 
L 245.132864 -38.016 
L 246.764294 -38.016 
L 248.395724 -38.016 
L 250.027154 -38.016 
L 251.658584 -38.016 
L 253.290014 -38.016 
L 254.921444 -38.016 
L 256.552873 -38.016 
L 258.184303 -38.016 
L 259.815733 -38.016 
L 261.447163 -38.016 
L 263.078593 -38.016 
L 264.710023 -38.016 
L 266.341453 -38.016 
L 267.972883 -38.016 
L 269.604312 -38.016 
L 271.235742 -38.016 
L 272.867172 -38.016 
L 274.498602 -38.016 
L 276.130032 -38.016 
L 277.761462 -38.016 
L 279.392892 -38.016 
L 281.024322 -38.016 
L 282.655751 -38.016 
L 284.287181 -38.016 
L 285.918611 -38.016 
L 287.550041 -38.016 
L 289.181471 -38.016 
L 290.812901 -38.016 
L 292.444331 -38.016 
L 294.075761 -38.016 
L 295.70719 -38.016 
L 297.33862 -38.016 
L 298.97005 -38.016 
L 300.60148 -38.016 
L 302.23291 -38.016 
L 303.86434 -38.016 
L 305.49577 -38.016 
L 307.1272 -38.016 
L 308.75863 -38.016 
L 310.390059 -38.016 
L 312.021489 -38.016 
L 313.652919 -38.016 
L 315.284349 -38.016 
L 316.915779 -38.016 
L 318.547209 -38.016 
L 320.178639 -38.016 
L 321.810069 -38.016 
L 323.441498 -38.016 
L 325.072928 -38.016 
L 326.704358 -38.016 
L 328.335788 -38.016 
L 329.967218 -38.016 
L 331.598648 -38.016 
L 333.230078 -38.016 
L 334.861508 -38.016 
L 336.492937 -38.016 
L 338.124367 -38.016 
L 339.755797 -38.016 
L 341.387227 -38.016 
L 343.018657 -38.016 
L 344.650087 -38.016 
L 346.281517 -38.016 
L 347.912947 -38.016 
L 349.544376 -38.016 
L 351.175806 -38.016 
L 352.807236 -38.016 
L 354.438666 -38.016 
L 356.070096 -38.016 
L 357.701526 -38.016 
L 359.332956 -38.016 
L 360.964386 -38.016 
L 362.595815 -38.016 
L 364.227245 -38.016 
L 365.858675 -38.016 
L 367.490105 -38.016 
L 369.121535 -38.016 
L 370.752965 -38.016 
L 372.384395 -38.016 
L 374.015825 -38.016 
L 375.647254 -38.016 
L 377.278684 -38.016 
L 378.910114 -38.016 
L 380.541544 -38.016 
L 382.172974 -38.016 
L 383.804404 -38.016 
L 385.435834 -38.016 
L 387.067264 -38.016 
L 388.698693 -38.016 
L 390.330123 -38.016 
L 391.961553 -38.016 
L 393.592983 -38.016 
L 395.224413 -38.016 
L 396.855843 -38.016 
L 398.487273 -38.016 
L 398.487273 -38.290373 
L 398.487273 -38.290373 
L 396.855843 -38.352284 
L 395.224413 -38.426629 
L 393.592983 -38.515543 
L 391.961553 -38.621455 
L 390.330123 -38.747106 
L 388.698693 -38.895574 
L 387.067264 -39.070297 
L 385.435834 -39.275088 
L 383.804404 -39.514158 
L 382.172974 -39.792119 
L 380.541544 -40.113998 
L 378.910114 -40.485234 
L 377.278684 -40.911675 
L 375.647254 -41.399558 
L 374.015825 -41.955493 
L 372.384395 -42.586426 
L 370.752965 -43.299598 
L 369.121535 -44.102492 
L 367.490105 -45.002769 
L 365.858675 -46.008189 
L 364.227245 -47.126534 
L 362.595815 -48.365501 
L 360.964386 -49.732607 
L 359.332956 -51.235072 
L 357.701526 -52.8797 
L 356.070096 -54.672753 
L 354.438666 -56.619833 
L 352.807236 -58.725749 
L 351.175806 -60.994395 
L 349.544376 -63.428637 
L 347.912947 -66.0302 
L 346.281517 -68.799572 
L 344.650087 -71.735919 
L 343.018657 -74.837017 
L 341.387227 -78.099206 
L 339.755797 -81.51736 
L 338.124367 -85.084881 
L 336.492937 -88.793717 
L 334.861508 -92.634402 
L 333.230078 -96.596124 
L 331.598648 -100.666809 
L 329.967218 -104.833235 
L 328.335788 -109.081159 
L 326.704358 -113.395464 
L 325.072928 -117.760325 
L 323.441498 -122.159382 
L 321.810069 -126.575921 
L 320.178639 -130.993067 
L 318.547209 -135.393969 
L 316.915779 -139.761987 
L 315.284349 -144.080875 
L 313.652919 -148.334949 
L 312.021489 -152.509248 
L 310.390059 -156.58968 
L 308.75863 -160.56314 
L 307.1272 -164.417628 
L 305.49577 -168.142329 
L 303.86434 -171.727682 
L 302.23291 -175.165429 
L 300.60148 -178.448636 
L 298.97005 -181.571701 
L 297.33862 -184.530342 
L 295.70719 -187.321565 
L 294.075761 -189.943624 
L 292.444331 -192.39596 
L 290.812901 -194.679131 
L 289.181471 -196.794739 
L 287.550041 -198.745341 
L 285.918611 -200.53436 
L 284.287181 -202.165995 
L 282.655751 -203.645122 
L 281.024322 -204.977206 
L 279.392892 -206.168203 
L 277.761462 -207.224472 
L 276.130032 -208.15269 
L 274.498602 -208.959765 
L 272.867172 -209.652765 
L 271.235742 -210.238837 
L 269.604312 -210.725146 
L 267.972883 -211.118807 
L 266.341453 -211.426836 
L 264.710023 -211.656091 
L 263.078593 -211.81323 
L 261.447163 -211.904673 
L 259.815733 -211.936564 
L 258.184303 -211.91474 
L 256.552873 -211.844713 
L 254.921444 -211.731644 
L 253.290014 -211.580331 
L 251.658584 -211.395203 
L 250.027154 -211.180308 
L 248.395724 -210.939315 
L 246.764294 -210.675518 
L 245.132864 -210.39184 
L 243.501434 -210.090843 
L 241.870005 -209.774735 
L 240.238575 -209.445389 
L 238.607145 -209.104351 
L 236.975715 -208.752857 
L 235.344285 -208.391846 
L 233.712855 -208.02197 
L 232.081425 -207.643604 
L 230.449995 -207.256858 
L 228.818566 -206.861576 
L 227.187136 -206.45734 
L 225.555706 -206.043468 
L 223.924276 -205.619003 
L 222.292846 -205.18271 
L 220.661416 -204.733056 
L 219.029986 -204.268195 
L 217.398556 -203.785952 
L 215.767127 -203.283799 
L 214.135697 -202.75884 
L 212.504267 -202.207786 
L 210.872837 -201.626942 
L 209.241407 -201.012194 
L 207.609977 -200.359 
L 205.978547 -199.662389 
L 204.347117 -198.916971 
L 202.715688 -198.116951 
L 201.084258 -197.256158 
L 199.452828 -196.32808 
L 197.821398 -195.325919 
L 196.189968 -194.242652 
L 194.558538 -193.071104 
L 192.927108 -191.804035 
L 191.295678 -190.43424 
L 189.664249 -188.954653 
L 188.032819 -187.358465 
L 186.401389 -185.639244 
L 184.769959 -183.791064 
L 183.138529 -181.808631 
L 181.507099 -179.687412 
L 179.875669 -177.423756 
L 178.244239 -175.015015 
L 176.61281 -172.459651 
L 174.98138 -169.757329 
L 173.34995 -166.909002 
L 171.71852 -163.916971 
L 170.08709 -160.78493 
L 168.45566 -157.51799 
L 166.82423 -154.122676 
L 165.1928 -150.606905 
L 163.56137 -146.979939 
L 161.929941 -143.252313 
L 160.298511 -139.43574 
L 158.667081 -135.542997 
L 157.035651 -131.58779 
L 155.404221 -127.584597 
L 153.772791 -123.54851 
L 152.141361 -119.495046 
L 150.509931 -115.43997 
L 148.878502 -111.399096 
L 147.247072 -107.388104 
L 145.615642 -103.422346 
L 143.984212 -99.516671 
L 142.352782 -95.685249 
L 140.721352 -91.941417 
L 139.089922 -88.297537 
L 137.458492 -84.764877 
L 135.827063 -81.353505 
L 134.195633 -78.072213 
L 132.564203 -74.928458 
L 130.932773 -71.928331 
L 129.301343 -69.07654 
L 127.669913 -66.376428 
L 126.038483 -63.829996 
L 124.407053 -61.437959 
L 122.775624 -59.199812 
L 121.144194 -57.113909 
L 119.512764 -55.177557 
L 117.881334 -53.387123 
L 116.249904 -51.738141 
L 114.618474 -50.225427 
L 112.987044 -48.843194 
L 111.355614 -47.585173 
L 109.724185 -46.444721 
L 108.092755 -45.414932 
L 106.461325 -44.48874 
L 104.829895 -43.659013 
L 103.198465 -42.91864 
L 101.567035 -42.260608 
L 99.935605 -41.678072 
L 98.304175 -41.164407 
L 96.672746 -40.713262 
L 95.041316 -40.318594 
L 93.409886 -39.974698 
L 91.778456 -39.676229 
L 90.147026 -39.418209 
L 88.515596 -39.19604 
L 86.884166 -39.005497 
L 85.252736 -38.842726 
L 83.621307 -38.704229 
L 81.989877 -38.586852 
L 80.358447 -38.487769 
L 78.727017 -38.40446 
L 77.095587 -38.334691 
L 75.464157 -38.276493 
L 73.832727 -38.228139 
z
" id="mccc8efd32c" style="stroke:#4169e1;stroke-width:1.8;"/>
    </defs>
    <g clip-path="url(#p7b66b91083)">
     <use style="fill:#4169e1;fill-opacity:0.25;stroke:#4169e1;stroke-width:1.8;" x="0" xlink:href="#mccc8efd32c" y="345.6"/>
    </g>
   </g>
   <g id="matplotlib.axis_1">
    <g id="xtick_1">
     <g id="line2d_1">
      <defs>
       <path d="M 0 0 
L 0 3.5 
" id="m0bc4da09b9" style="stroke:#000000;stroke-width:0.8;"/>
      </defs>
      <g>
       <use style="stroke:#000000;stroke-width:0.8;" x="65.93721" xlink:href="#m0bc4da09b9" y="307.584"/>
      </g>
     </g>
     <g id="text_1">
      <!-- 0.50 -->
      <g transform="translate(50.614554 322.182437)scale(0.1 -0.1)">
       <defs>
        <path d="M 678 2272 
L 4684 2272 
L 4684 1741 
L 678 1741 
L 678 2272 
z
" id="DejaVuSans-2212" transform="scale(0.015625)"/>
        <path d="M 2034 4250 
Q 1547 4250 1301 3770 
Q 1056 3291 1056 2328 
Q 1056 1369 1301 889 
Q 1547 409 2034 409 
Q 2525 409 2770 889 
Q 3016 1369 3016 2328 
Q 3016 3291 2770 3770 
Q 2525 4250 2034 4250 
z
M 2034 4750 
Q 2819 4750 3233 4129 
Q 3647 3509 3647 2328 
Q 3647 1150 3233 529 
Q 2819 -91 2034 -91 
Q 1250 -91 836 529 
Q 422 1150 422 2328 
Q 422 3509 836 4129 
Q 1250 4750 2034 4750 
z
" id="DejaVuSans-30" transform="scale(0.015625)"/>
        <path d="M 684 794 
L 1344 794 
L 1344 0 
L 684 0 
L 684 794 
z
" id="DejaVuSans-2e" transform="scale(0.015625)"/>
        <path d="M 691 4666 
L 3169 4666 
L 3169 4134 
L 1269 4134 
L 1269 2991 
Q 1406 3038 1543 3061 
Q 1681 3084 1819 3084 
Q 2600 3084 3056 2656 
Q 3513 2228 3513 1497 
Q 3513 744 3044 326 
Q 2575 -91 1722 -91 
Q 1428 -91 1123 -41 
Q 819 9 494 109 
L 494 744 
Q 775 591 1075 516 
Q 1375 441 1709 441 
Q 2250 441 2565 725 
Q 2881 1009 2881 1497 
Q 2881 1984 2565 2268 
Q 2250 2553 1709 2553 
Q 1456 2553 1204 2497 
Q 953 2441 691 2322 
L 691 4666 
z
" id="DejaVuSans-35" transform="scale(0.015625)"/>
       </defs>
       <use xlink:href="#DejaVuSans-2212"/>
       <use x="83.789062" xlink:href="#DejaVuSans-30"/>
       <use x="147.412109" xlink:href="#DejaVuSans-2e"/>
       <use x="179.199219" xlink:href="#DejaVuSans-35"/>
       <use x="242.822266" xlink:href="#DejaVuSans-30"/>
      </g>
     </g>
    </g>
    <g id="xtick_2">
     <g id="line2d_2">
      <g>
       <use style="stroke:#000000;stroke-width:0.8;" x="108.492411" xlink:href="#m0bc4da09b9" y="307.584"/>
      </g>
     </g>
     <g id="text_2">
      <!-- 0.25 -->
      <g transform="translate(93.169755 322.182437)scale(0.1 -0.1)">
       <defs>
        <path d="M 1228 531 
L 3431 531 
L 3431 0 
L 469 0 
L 469 531 
Q 828 903 1448 1529 
Q 2069 2156 2228 2338 
Q 2531 2678 2651 2914 
Q 2772 3150 2772 3378 
Q 2772 3750 2511 3984 
Q 2250 4219 1831 4219 
Q 1534 4219 1204 4116 
Q 875 4013 500 3803 
L 500 4441 
Q 881 4594 1212 4672 
Q 1544 4750 1819 4750 
Q 2544 4750 2975 4387 
Q 3406 4025 3406 3419 
Q 3406 3131 3298 2873 
Q 3191 2616 2906 2266 
Q 2828 2175 2409 1742 
Q 1991 1309 1228 531 
z
" id="DejaVuSans-32" transform="scale(0.015625)"/>
       </defs>
       <use xlink:href="#DejaVuSans-2212"/>
       <use x="83.789062" xlink:href="#DejaVuSans-30"/>
       <use x="147.412109" xlink:href="#DejaVuSans-2e"/>
       <use x="179.199219" xlink:href="#DejaVuSans-32"/>
       <use x="242.822266" xlink:href="#DejaVuSans-35"/>
      </g>
     </g>
    </g>
    <g id="xtick_3">
     <g id="line2d_3">
      <g>
       <use style="stroke:#000000;stroke-width:0.8;" x="151.047612" xlink:href="#m0bc4da09b9" y="307.584"/>
      </g>
     </g>
     <g id="text_3">
      <!-- 0.00 -->
      <g transform="translate(139.914799 322.182437)scale(0.1 -0.1)">
       <use xlink:href="#DejaVuSans-30"/>
       <use x="63.623047" xlink:href="#DejaVuSans-2e"/>
       <use x="95.410156" xlink:href="#DejaVuSans-30"/>
       <use x="159.033203" xlink:href="#DejaVuSans-30"/>
      </g>
     </g>
    </g>
    <g id="xtick_4">
     <g id="line2d_4">
      <g>
       <use style="stroke:#000000;stroke-width:0.8;" x="193.602812" xlink:href="#m0bc4da09b9" y="307.584"/>
      </g>
     </g>
     <g id="text_4">
      <!-- 0.25 -->
      <g transform="translate(182.47 322.182437)scale(0.1 -0.1)">
       <use xlink:href="#DejaVuSans-30"/>
       <use x="63.623047" xlink:href="#DejaVuSans-2e"/>
       <use x="95.410156" xlink:href="#DejaVuSans-32"/>
       <use x="159.033203" xlink:href="#DejaVuSans-35"/>
      </g>
     </g>
    </g>
    <g id="xtick_5">
     <g id="line2d_5">
      <g>
       <use style="stroke:#000000;stroke-width:0.8;" x="236.158013" xlink:href="#m0bc4da09b9" y="307.584"/>
      </g>
     </g>
     <g id="text_5">
      <!-- 0.50 -->
      <g transform="translate(225.025201 322.182437)scale(0.1 -0.1)">
       <use xlink:href="#DejaVuSans-30"/>
       <use x="63.623047" xlink:href="#DejaVuSans-2e"/>
       <use x="95.410156" xlink:href="#DejaVuSans-35"/>
       <use x="159.033203" xlink:href="#DejaVuSans-30"/>
      </g>
     </g>
    </g>
    <g id="xtick_6">
     <g id="line2d_6">
      <g>
       <use style="stroke:#000000;stroke-width:0.8;" x="278.713214" xlink:href="#m0bc4da09b9" y="307.584"/>
      </g>
     </g>
     <g id="text_6">
      <!-- 0.75 -->
      <g transform="translate(267.580401 322.182437)scale(0.1 -0.1)">
       <defs>
        <path d="M 525 4666 
L 3525 4666 
L 3525 4397 
L 1831 0 
L 1172 0 
L 2766 4134 
L 525 4134 
L 525 4666 
z
" id="DejaVuSans-37" transform="scale(0.015625)"/>
       </defs>
       <use xlink:href="#DejaVuSans-30"/>
       <use x="63.623047" xlink:href="#DejaVuSans-2e"/>
       <use x="95.410156" xlink:href="#DejaVuSans-37"/>
       <use x="159.033203" xlink:href="#DejaVuSans-35"/>
      </g>
     </g>
    </g>
    <g id="xtick_7">
     <g id="line2d_7">
      <g>
       <use style="stroke:#000000;stroke-width:0.8;" x="321.268414" xlink:href="#m0bc4da09b9" y="307.584"/>
      </g>
     </g>
     <g id="text_7">
      <!-- 1.00 -->
      <g transform="translate(310.135602 322.182437)scale(0.1 -0.1)">
       <defs>
        <path d="M 794 531 
L 1825 531 
L 1825 4091 
L 703 3866 
L 703 4441 
L 1819 4666 
L 2450 4666 
L 2450 531 
L 3481 531 
L 3481 0 
L 794 0 
L 794 531 
z
" id="DejaVuSans-31" transform="scale(0.015625)"/>
       </defs>
       <use xlink:href="#DejaVuSans-31"/>
       <use x="63.623047" xlink:href="#DejaVuSans-2e"/>
       <use x="95.410156" xlink:href="#DejaVuSans-30"/>
       <use x="159.033203" xlink:href="#DejaVuSans-30"/>
      </g>
     </g>
    </g>
    <g id="xtick_8">
     <g id="line2d_8">
      <g>
       <use style="stroke:#000000;stroke-width:0.8;" x="363.823615" xlink:href="#m0bc4da09b9" y="307.584"/>
      </g>
     </g>
     <g id="text_8">
      <!-- 1.25 -->
      <g transform="translate(352.690802 322.182437)scale(0.1 -0.1)">
       <use xlink:href="#DejaVuSans-31"/>
       <use x="63.623047" xlink:href="#DejaVuSans-2e"/>
       <use x="95.410156" xlink:href="#DejaVuSans-32"/>
       <use x="159.033203" xlink:href="#DejaVuSans-35"/>
      </g>
     </g>
    </g>
    <g id="xtick_9">
     <g id="line2d_9">
      <g>
       <use style="stroke:#000000;stroke-width:0.8;" x="406.378816" xlink:href="#m0bc4da09b9" y="307.584"/>
      </g>
     </g>
     <g id="text_9">
      <!-- 1.50 -->
      <g transform="translate(395.246003 322.182437)scale(0.1 -0.1)">
       <use xlink:href="#DejaVuSans-31"/>
       <use x="63.623047" xlink:href="#DejaVuSans-2e"/>
       <use x="95.410156" xlink:href="#DejaVuSans-35"/>
       <use x="159.033203" xlink:href="#DejaVuSans-30"/>
      </g>
     </g>
    </g>
   </g>
   <g id="matplotlib.axis_2">
    <g id="ytick_1">
     <g id="line2d_10">
      <defs>
       <path d="M 0 0 
L -3.5 0 
" id="m175fd97fdd" style="stroke:#000000;stroke-width:0.8;"/>
      </defs>
      <g>
       <use style="stroke:#000000;stroke-width:0.8;" x="57.6" xlink:href="#m175fd97fdd" y="307.584"/>
      </g>
     </g>
     <g id="text_10">
      <!-- 0.0 -->
      <g transform="translate(34.696875 311.383219)scale(0.1 -0.1)">
       <use xlink:href="#DejaVuSans-30"/>
       <use x="63.623047" xlink:href="#DejaVuSans-2e"/>
       <use x="95.410156" xlink:href="#DejaVuSans-30"/>
      </g>
     </g>
    </g>
    <g id="ytick_2">
     <g id="line2d_11">
      <g>
       <use style="stroke:#000000;stroke-width:0.8;" x="57.6" xlink:href="#m175fd97fdd" y="273.610094"/>
      </g>
     </g>
     <g id="text_11">
      <!-- 0.2 -->
      <g transform="translate(34.696875 277.409313)scale(0.1 -0.1)">
       <use xlink:href="#DejaVuSans-30"/>
       <use x="63.623047" xlink:href="#DejaVuSans-2e"/>
       <use x="95.410156" xlink:href="#DejaVuSans-32"/>
      </g>
     </g>
    </g>
    <g id="ytick_3">
     <g id="line2d_12">
      <g>
       <use style="stroke:#000000;stroke-width:0.8;" x="57.6" xlink:href="#m175fd97fdd" y="239.636189"/>
      </g>
     </g>
     <g id="text_12">
      <!-- 0.4 -->
      <g transform="translate(34.696875 243.435407)scale(0.1 -0.1)">
       <defs>
        <path d="M 2419 4116 
L 825 1625 
L 2419 1625 
L 2419 4116 
z
M 2253 4666 
L 3047 4666 
L 3047 1625 
L 3713 1625 
L 3713 1100 
L 3047 1100 
L 3047 0 
L 2419 0 
L 2419 1100 
L 313 1100 
L 313 1709 
L 2253 4666 
z
" id="DejaVuSans-34" transform="scale(0.015625)"/>
       </defs>
       <use xlink:href="#DejaVuSans-30"/>
       <use x="63.623047" xlink:href="#DejaVuSans-2e"/>
       <use x="95.410156" xlink:href="#DejaVuSans-34"/>
      </g>
     </g>
    </g>
    <g id="ytick_4">
     <g id="line2d_13">
      <g>
       <use style="stroke:#000000;stroke-width:0.8;" x="57.6" xlink:href="#m175fd97fdd" y="205.662283"/>
      </g>
     </g>
     <g id="text_13">
      <!-- 0.6 -->
      <g transform="translate(34.696875 209.461502)scale(0.1 -0.1)">
       <defs>
        <path d="M 2113 2584 
Q 1688 2584 1439 2293 
Q 1191 2003 1191 1497 
Q 1191 994 1439 701 
Q 1688 409 2113 409 
Q 2538 409 2786 701 
Q 3034 994 3034 1497 
Q 3034 2003 2786 2293 
Q 2538 2584 2113 2584 
z
M 3366 4563 
L 3366 3988 
Q 3128 4100 2886 4159 
Q 2644 4219 2406 4219 
Q 1781 4219 1451 3797 
Q 1122 3375 1075 2522 
Q 1259 2794 1537 2939 
Q 1816 3084 2150 3084 
Q 2853 3084 3261 2657 
Q 3669 2231 3669 1497 
Q 3669 778 3244 343 
Q 2819 -91 2113 -91 
Q 1303 -91 875 529 
Q 447 1150 447 2328 
Q 447 3434 972 4092 
Q 1497 4750 2381 4750 
Q 2619 4750 2861 4703 
Q 3103 4656 3366 4563 
z
" id="DejaVuSans-36" transform="scale(0.015625)"/>
       </defs>
       <use xlink:href="#DejaVuSans-30"/>
       <use x="63.623047" xlink:href="#DejaVuSans-2e"/>
       <use x="95.410156" xlink:href="#DejaVuSans-36"/>
      </g>
     </g>
    </g>
    <g id="ytick_5">
     <g id="line2d_14">
      <g>
       <use style="stroke:#000000;stroke-width:0.8;" x="57.6" xlink:href="#m175fd97fdd" y="171.688377"/>
      </g>
     </g>
     <g id="text_14">
      <!-- 0.8 -->
      <g transform="translate(34.696875 175.487596)scale(0.1 -0.1)">
       <defs>
        <path d="M 2034 2216 
Q 1584 2216 1326 1975 
Q 1069 1734 1069 1313 
Q 1069 891 1326 650 
Q 1584 409 2034 409 
Q 2484 409 2743 651 
Q 3003 894 3003 1313 
Q 3003 1734 2745 1975 
Q 2488 2216 2034 2216 
z
M 1403 2484 
Q 997 2584 770 2862 
Q 544 3141 544 3541 
Q 544 4100 942 4425 
Q 1341 4750 2034 4750 
Q 2731 4750 3128 4425 
Q 3525 4100 3525 3541 
Q 3525 3141 3298 2862 
Q 3072 2584 2669 2484 
Q 3125 2378 3379 2068 
Q 3634 1759 3634 1313 
Q 3634 634 3220 271 
Q 2806 -91 2034 -91 
Q 1263 -91 848 271 
Q 434 634 434 1313 
Q 434 1759 690 2068 
Q 947 2378 1403 2484 
z
M 1172 3481 
Q 1172 3119 1398 2916 
Q 1625 2713 2034 2713 
Q 2441 2713 2670 2916 
Q 2900 3119 2900 3481 
Q 2900 3844 2670 4047 
Q 2441 4250 2034 4250 
Q 1625 4250 1398 4047 
Q 1172 3844 1172 3481 
z
" id="DejaVuSans-38" transform="scale(0.015625)"/>
       </defs>
       <use xlink:href="#DejaVuSans-30"/>
       <use x="63.623047" xlink:href="#DejaVuSans-2e"/>
       <use x="95.410156" xlink:href="#DejaVuSans-38"/>
      </g>
     </g>
    </g>
    <g id="ytick_6">
     <g id="line2d_15">
      <g>
       <use style="stroke:#000000;stroke-width:0.8;" x="57.6" xlink:href="#m175fd97fdd" y="137.714471"/>
      </g>
     </g>
     <g id="text_15">
      <!-- 1.0 -->
      <g transform="translate(34.696875 141.51369)scale(0.1 -0.1)">
       <use xlink:href="#DejaVuSans-31"/>
       <use x="63.623047" xlink:href="#DejaVuSans-2e"/>
       <use x="95.410156" xlink:href="#DejaVuSans-30"/>
      </g>
     </g>
    </g>
    <g id="ytick_7">
     <g id="line2d_16">
      <g>
       <use style="stroke:#000000;stroke-width:0.8;" x="57.6" xlink:href="#m175fd97fdd" y="103.740566"/>
      </g>
     </g>
     <g id="text_16">
      <!-- 1.2 -->
      <g transform="translate(34.696875 107.539784)scale(0.1 -0.1)">
       <use xlink:href="#DejaVuSans-31"/>
       <use x="63.623047" xlink:href="#DejaVuSans-2e"/>
       <use x="95.410156" xlink:href="#DejaVuSans-32"/>
      </g>
     </g>
    </g>
    <g id="ytick_8">
     <g id="line2d_17">
      <g>
       <use style="stroke:#000000;stroke-width:0.8;" x="57.6" xlink:href="#m175fd97fdd" y="69.76666"/>
      </g>
     </g>
     <g id="text_17">
      <!-- 1.4 -->
      <g transform="translate(34.696875 73.565879)scale(0.1 -0.1)">
       <use xlink:href="#DejaVuSans-31"/>
       <use x="63.623047" xlink:href="#DejaVuSans-2e"/>
       <use x="95.410156" xlink:href="#DejaVuSans-34"/>
      </g>
     </g>
    </g>
    <g id="text_18">
     <!-- Density -->
     <g transform="translate(28.617187 193.536594)rotate(-90)scale(0.1 -0.1)">
      <defs>
       <path d="M 1259 4147 
L 1259 519 
L 2022 519 
Q 2988 519 3436 956 
Q 3884 1394 3884 2338 
Q 3884 3275 3436 3711 
Q 2988 4147 2022 4147 
L 1259 4147 
z
M 628 4666 
L 1925 4666 
Q 3281 4666 3915 4102 
Q 4550 3538 4550 2338 
Q 4550 1131 3912 565 
Q 3275 0 1925 0 
L 628 0 
L 628 4666 
z
" id="DejaVuSans-44" transform="scale(0.015625)"/>
       <path d="M 3597 1894 
L 3597 1613 
L 953 1613 
Q 991 1019 1311 708 
Q 1631 397 2203 397 
Q 2534 397 2845 478 
Q 3156 559 3463 722 
L 3463 178 
Q 3153 47 2828 -22 
Q 2503 -91 2169 -91 
Q 1331 -91 842 396 
Q 353 884 353 1716 
Q 353 2575 817 3079 
Q 1281 3584 2069 3584 
Q 2775 3584 3186 3129 
Q 3597 2675 3597 1894 
z
M 3022 2063 
Q 3016 2534 2758 2815 
Q 2500 3097 2075 3097 
Q 1594 3097 1305 2825 
Q 1016 2553 972 2059 
L 3022 2063 
z
" id="DejaVuSans-65" transform="scale(0.015625)"/>
       <path d="M 3513 2113 
L 3513 0 
L 2938 0 
L 2938 2094 
Q 2938 2591 2744 2837 
Q 2550 3084 2163 3084 
Q 1697 3084 1428 2787 
Q 1159 2491 1159 1978 
L 1159 0 
L 581 0 
L 581 3500 
L 1159 3500 
L 1159 2956 
Q 1366 3272 1645 3428 
Q 1925 3584 2291 3584 
Q 2894 3584 3203 3211 
Q 3513 2838 3513 2113 
z
" id="DejaVuSans-6e" transform="scale(0.015625)"/>
       <path d="M 2834 3397 
L 2834 2853 
Q 2591 2978 2328 3040 
Q 2066 3103 1784 3103 
Q 1356 3103 1142 2972 
Q 928 2841 928 2578 
Q 928 2378 1081 2264 
Q 1234 2150 1697 2047 
L 1894 2003 
Q 2506 1872 2764 1633 
Q 3022 1394 3022 966 
Q 3022 478 2636 193 
Q 2250 -91 1575 -91 
Q 1294 -91 989 -36 
Q 684 19 347 128 
L 347 722 
Q 666 556 975 473 
Q 1284 391 1588 391 
Q 1994 391 2212 530 
Q 2431 669 2431 922 
Q 2431 1156 2273 1281 
Q 2116 1406 1581 1522 
L 1381 1569 
Q 847 1681 609 1914 
Q 372 2147 372 2553 
Q 372 3047 722 3315 
Q 1072 3584 1716 3584 
Q 2034 3584 2315 3537 
Q 2597 3491 2834 3397 
z
" id="DejaVuSans-73" transform="scale(0.015625)"/>
       <path d="M 603 3500 
L 1178 3500 
L 1178 0 
L 603 0 
L 603 3500 
z
M 603 4863 
L 1178 4863 
L 1178 4134 
L 603 4134 
L 603 4863 
z
" id="DejaVuSans-69" transform="scale(0.015625)"/>
       <path d="M 1172 4494 
L 1172 3500 
L 2356 3500 
L 2356 3053 
L 1172 3053 
L 1172 1153 
Q 1172 725 1289 603 
Q 1406 481 1766 481 
L 2356 481 
L 2356 0 
L 1766 0 
Q 1100 0 847 248 
Q 594 497 594 1153 
L 594 3053 
L 172 3053 
L 172 3500 
L 594 3500 
L 594 4494 
L 1172 4494 
z
" id="DejaVuSans-74" transform="scale(0.015625)"/>
       <path d="M 2059 -325 
Q 1816 -950 1584 -1140 
Q 1353 -1331 966 -1331 
L 506 -1331 
L 506 -850 
L 844 -850 
Q 1081 -850 1212 -737 
Q 1344 -625 1503 -206 
L 1606 56 
L 191 3500 
L 800 3500 
L 1894 763 
L 2988 3500 
L 3597 3500 
L 2059 -325 
z
" id="DejaVuSans-79" transform="scale(0.015625)"/>
      </defs>
      <use xlink:href="#DejaVuSans-44"/>
      <use x="77.001953" xlink:href="#DejaVuSans-65"/>
      <use x="138.525391" xlink:href="#DejaVuSans-6e"/>
      <use x="201.904297" xlink:href="#DejaVuSans-73"/>
      <use x="254.003906" xlink:href="#DejaVuSans-69"/>
      <use x="281.787109" xlink:href="#DejaVuSans-74"/>
      <use x="320.996094" xlink:href="#DejaVuSans-79"/>
     </g>
    </g>
   </g>
   <g id="patch_3">
    <path d="M 57.6 307.584 
L 57.6 41.472 
" style="fill:none;stroke:#000000;stroke-linecap:square;stroke-linejoin:miter;stroke-width:0.8;"/>
   </g>
   <g id="patch_4">
    <path d="M 414.72 307.584 
L 414.72 41.472 
" style="fill:none;stroke:#000000;stroke-linecap:square;stroke-linejoin:miter;stroke-width:0.8;"/>
   </g>
   <g id="patch_5">
    <path d="M 57.6 307.584 
L 414.72 307.584 
" style="fill:none;stroke:#000000;stroke-linecap:square;stroke-linejoin:miter;stroke-width:0.8;"/>
   </g>
   <g id="patch_6">
    <path d="M 57.6 41.472 
L 414.72 41.472 
" style="fill:none;stroke:#000000;stroke-linecap:square;stroke-linejoin:miter;stroke-width:0.8;"/>
   </g>
   <g id="legend_1">
    <g id="patch_7">
     <path d="M 286.537188 137.54075 
L 407.72 137.54075 
Q 409.72 137.54075 409.72 135.54075 
L 409.72 48.472 
Q 409.72 46.472 407.72 46.472 
L 286.537188 46.472 
Q 284.537188 46.472 284.537188 48.472 
L 284.537188 135.54075 
Q 284.537188 137.54075 286.537188 137.54075 
z
" style="fill:#ffffff;opacity:0.8;stroke:#cccccc;stroke-linejoin:miter;"/>
    </g>
    <g id="text_19">
     <!-- kernel bandwidth value -->
     <g transform="translate(288.537188 58.070438)scale(0.1 -0.1)">
      <defs>
       <path d="M 581 4863 
L 1159 4863 
L 1159 1991 
L 2875 3500 
L 3609 3500 
L 1753 1863 
L 3688 0 
L 2938 0 
L 1159 1709 
L 1159 0 
L 581 0 
L 581 4863 
z
" id="DejaVuSans-6b" transform="scale(0.015625)"/>
       <path d="M 2631 2963 
Q 2534 3019 2420 3045 
Q 2306 3072 2169 3072 
Q 1681 3072 1420 2755 
Q 1159 2438 1159 1844 
L 1159 0 
L 581 0 
L 581 3500 
L 1159 3500 
L 1159 2956 
Q 1341 3275 1631 3429 
Q 1922 3584 2338 3584 
Q 2397 3584 2469 3576 
Q 2541 3569 2628 3553 
L 2631 2963 
z
" id="DejaVuSans-72" transform="scale(0.015625)"/>
       <path d="M 603 4863 
L 1178 4863 
L 1178 0 
L 603 0 
L 603 4863 
z
" id="DejaVuSans-6c" transform="scale(0.015625)"/>
       <path id="DejaVuSans-20" transform="scale(0.015625)"/>
       <path d="M 3116 1747 
Q 3116 2381 2855 2742 
Q 2594 3103 2138 3103 
Q 1681 3103 1420 2742 
Q 1159 2381 1159 1747 
Q 1159 1113 1420 752 
Q 1681 391 2138 391 
Q 2594 391 2855 752 
Q 3116 1113 3116 1747 
z
M 1159 2969 
Q 1341 3281 1617 3432 
Q 1894 3584 2278 3584 
Q 2916 3584 3314 3078 
Q 3713 2572 3713 1747 
Q 3713 922 3314 415 
Q 2916 -91 2278 -91 
Q 1894 -91 1617 61 
Q 1341 213 1159 525 
L 1159 0 
L 581 0 
L 581 4863 
L 1159 4863 
L 1159 2969 
z
" id="DejaVuSans-62" transform="scale(0.015625)"/>
       <path d="M 2194 1759 
Q 1497 1759 1228 1600 
Q 959 1441 959 1056 
Q 959 750 1161 570 
Q 1363 391 1709 391 
Q 2188 391 2477 730 
Q 2766 1069 2766 1631 
L 2766 1759 
L 2194 1759 
z
M 3341 1997 
L 3341 0 
L 2766 0 
L 2766 531 
Q 2569 213 2275 61 
Q 1981 -91 1556 -91 
Q 1019 -91 701 211 
Q 384 513 384 1019 
Q 384 1609 779 1909 
Q 1175 2209 1959 2209 
L 2766 2209 
L 2766 2266 
Q 2766 2663 2505 2880 
Q 2244 3097 1772 3097 
Q 1472 3097 1187 3025 
Q 903 2953 641 2809 
L 641 3341 
Q 956 3463 1253 3523 
Q 1550 3584 1831 3584 
Q 2591 3584 2966 3190 
Q 3341 2797 3341 1997 
z
" id="DejaVuSans-61" transform="scale(0.015625)"/>
       <path d="M 2906 2969 
L 2906 4863 
L 3481 4863 
L 3481 0 
L 2906 0 
L 2906 525 
Q 2725 213 2448 61 
Q 2172 -91 1784 -91 
Q 1150 -91 751 415 
Q 353 922 353 1747 
Q 353 2572 751 3078 
Q 1150 3584 1784 3584 
Q 2172 3584 2448 3432 
Q 2725 3281 2906 2969 
z
M 947 1747 
Q 947 1113 1208 752 
Q 1469 391 1925 391 
Q 2381 391 2643 752 
Q 2906 1113 2906 1747 
Q 2906 2381 2643 2742 
Q 2381 3103 1925 3103 
Q 1469 3103 1208 2742 
Q 947 2381 947 1747 
z
" id="DejaVuSans-64" transform="scale(0.015625)"/>
       <path d="M 269 3500 
L 844 3500 
L 1563 769 
L 2278 3500 
L 2956 3500 
L 3675 769 
L 4391 3500 
L 4966 3500 
L 4050 0 
L 3372 0 
L 2619 2869 
L 1863 0 
L 1184 0 
L 269 3500 
z
" id="DejaVuSans-77" transform="scale(0.015625)"/>
       <path d="M 3513 2113 
L 3513 0 
L 2938 0 
L 2938 2094 
Q 2938 2591 2744 2837 
Q 2550 3084 2163 3084 
Q 1697 3084 1428 2787 
Q 1159 2491 1159 1978 
L 1159 0 
L 581 0 
L 581 4863 
L 1159 4863 
L 1159 2956 
Q 1366 3272 1645 3428 
Q 1925 3584 2291 3584 
Q 2894 3584 3203 3211 
Q 3513 2838 3513 2113 
z
" id="DejaVuSans-68" transform="scale(0.015625)"/>
       <path d="M 191 3500 
L 800 3500 
L 1894 563 
L 2988 3500 
L 3597 3500 
L 2284 0 
L 1503 0 
L 191 3500 
z
" id="DejaVuSans-76" transform="scale(0.015625)"/>
       <path d="M 544 1381 
L 544 3500 
L 1119 3500 
L 1119 1403 
Q 1119 906 1312 657 
Q 1506 409 1894 409 
Q 2359 409 2629 706 
Q 2900 1003 2900 1516 
L 2900 3500 
L 3475 3500 
L 3475 0 
L 2900 0 
L 2900 538 
Q 2691 219 2414 64 
Q 2138 -91 1772 -91 
Q 1169 -91 856 284 
Q 544 659 544 1381 
z
M 1991 3584 
L 1991 3584 
z
" id="DejaVuSans-75" transform="scale(0.015625)"/>
      </defs>
      <use xlink:href="#DejaVuSans-6b"/>
      <use x="54.285156" xlink:href="#DejaVuSans-65"/>
      <use x="115.808594" xlink:href="#DejaVuSans-72"/>
      <use x="155.171875" xlink:href="#DejaVuSans-6e"/>
      <use x="218.550781" xlink:href="#DejaVuSans-65"/>
      <use x="280.074219" xlink:href="#DejaVuSans-6c"/>
      <use x="307.857422" xlink:href="#DejaVuSans-20"/>
      <use x="339.644531" xlink:href="#DejaVuSans-62"/>
      <use x="403.121094" xlink:href="#DejaVuSans-61"/>
      <use x="464.400391" xlink:href="#DejaVuSans-6e"/>
      <use x="527.779297" xlink:href="#DejaVuSans-64"/>
      <use x="591.255859" xlink:href="#DejaVuSans-77"/>
      <use x="673.042969" xlink:href="#DejaVuSans-69"/>
      <use x="700.826172" xlink:href="#DejaVuSans-64"/>
      <use x="764.302734" xlink:href="#DejaVuSans-74"/>
      <use x="803.511719" xlink:href="#DejaVuSans-68"/>
      <use x="866.890625" xlink:href="#DejaVuSans-20"/>
      <use x="898.677734" xlink:href="#DejaVuSans-76"/>
      <use x="957.857422" xlink:href="#DejaVuSans-61"/>
      <use x="1019.136719" xlink:href="#DejaVuSans-6c"/>
      <use x="1046.919922" xlink:href="#DejaVuSans-75"/>
      <use x="1110.298828" xlink:href="#DejaVuSans-65"/>
     </g>
    </g>
    <g id="patch_8">
     <path d="M 321.995781 72.748563 
L 341.995781 72.748563 
L 341.995781 65.748563 
L 321.995781 65.748563 
z
" style="fill:#919191;fill-opacity:0.25;stroke:#919191;stroke-linejoin:miter;stroke-width:1.8;"/>
    </g>
    <g id="text_20">
     <!-- 0.1 -->
     <g transform="translate(349.995781 72.748563)scale(0.1 -0.1)">
      <use xlink:href="#DejaVuSans-30"/>
      <use x="63.623047" xlink:href="#DejaVuSans-2e"/>
      <use x="95.410156" xlink:href="#DejaVuSans-31"/>
     </g>
    </g>
    <g id="patch_9">
     <path d="M 321.995781 87.426688 
L 341.995781 87.426688 
L 341.995781 80.426688 
L 321.995781 80.426688 
z
" style="fill:#7d87a5;fill-opacity:0.25;stroke:#7d87a5;stroke-linejoin:miter;stroke-width:1.8;"/>
    </g>
    <g id="text_21">
     <!-- 0.25 -->
     <g transform="translate(349.995781 87.426688)scale(0.1 -0.1)">
      <use xlink:href="#DejaVuSans-30"/>
      <use x="63.623047" xlink:href="#DejaVuSans-2e"/>
      <use x="95.410156" xlink:href="#DejaVuSans-32"/>
      <use x="159.033203" xlink:href="#DejaVuSans-35"/>
     </g>
    </g>
    <g id="patch_10">
     <path d="M 321.995781 102.104813 
L 341.995781 102.104813 
L 341.995781 95.104813 
L 321.995781 95.104813 
z
" style="fill:#697db9;fill-opacity:0.25;stroke:#697db9;stroke-linejoin:miter;stroke-width:1.8;"/>
    </g>
    <g id="text_22">
     <!-- 0.5 -->
     <g transform="translate(349.995781 102.104813)scale(0.1 -0.1)">
      <use xlink:href="#DejaVuSans-30"/>
      <use x="63.623047" xlink:href="#DejaVuSans-2e"/>
      <use x="95.410156" xlink:href="#DejaVuSans-35"/>
     </g>
    </g>
    <g id="patch_11">
     <path d="M 321.995781 116.782938 
L 341.995781 116.782938 
L 341.995781 109.782938 
L 321.995781 109.782938 
z
" style="fill:#5573cd;fill-opacity:0.25;stroke:#5573cd;stroke-linejoin:miter;stroke-width:1.8;"/>
    </g>
    <g id="text_23">
     <!-- 1 -->
     <g transform="translate(349.995781 116.782938)scale(0.1 -0.1)">
      <use xlink:href="#DejaVuSans-31"/>
     </g>
    </g>
    <g id="patch_12">
     <path d="M 321.995781 131.461063 
L 341.995781 131.461063 
L 341.995781 124.461063 
L 321.995781 124.461063 
z
" style="fill:#4169e1;fill-opacity:0.25;stroke:#4169e1;stroke-linejoin:miter;stroke-width:1.8;"/>
    </g>
    <g id="text_24">
     <!-- 2 -->
     <g transform="translate(349.995781 131.461063)scale(0.1 -0.1)">
      <use xlink:href="#DejaVuSans-32"/>
     </g>
    </g>
   </g>
  </g>
 </g>
 <defs>
  <clipPath id="p7b66b91083">
   <rect height="266.112" width="357.12" x="57.6" y="41.472"/>
  </clipPath>
 </defs>
</svg>
